<svg width="39" height="29" viewBox="0 0 39 29" fill="none" xmlns="http://www.w3.org/2000/svg">
<path d="M26.3421 1H12.3636C11.1355 1 9.97534 1.56424 9.21705 2.5304L2.73729 10.7865C1.69511 12.1143 1.59869 13.9535 2.49628 15.3831L9.24217 26.127C9.97397 27.2925 11.2536 28 12.6298 28H26.0753C27.4289 28 28.6906 27.3154 29.4286 26.1807L36.4115 15.4427C37.3582 13.9869 37.2574 12.0865 36.1621 10.739L29.446 2.47692C28.6864 1.5425 27.5463 1 26.3421 1Z" stroke="#4663AC" stroke-width="2"/>
<path d="M16.7847 18.3984V21.0403C16.7847 21.5926 17.2324 22.0403 17.7847 22.0403H21.235C21.7873 22.0403 22.235 21.5926 22.235 21.0403V13.8829C22.235 13.3306 22.6827 12.8829 23.235 12.8829H24.9999M24.9999 12.8829L22.9618 10.4418C22.576 9.97982 21.8724 9.96081 21.4623 10.4013L20.7173 11.2015C20.1219 11.841 20.5754 12.8829 21.4492 12.8829H24.9999Z" stroke="#4663AC"/>
<path d="M22.2153 8.52175V5.87985C22.2153 5.32756 21.7676 4.87985 21.2153 4.87985L17.765 4.87985C17.2127 4.87985 16.765 5.32756 16.765 5.87985L16.765 13.0373C16.765 13.5896 16.3173 14.0373 15.765 14.0373H14.0001M14.0001 14.0373L16.0382 16.4783C16.424 16.9404 17.1276 16.9594 17.5377 16.5188L18.2827 15.7187C18.8781 15.0792 18.4246 14.0373 17.5508 14.0373H14.0001Z" stroke="#4663AC"/>
</svg>
