<svg width="39" height="29" viewBox="0 0 39 29" fill="none" xmlns="http://www.w3.org/2000/svg">
<path d="M26.3421 1H12.3636C11.1355 1 9.97534 1.56424 9.21705 2.5304L2.73729 10.7865C1.69511 12.1143 1.59869 13.9535 2.49628 15.3831L9.24217 26.127C9.97397 27.2925 11.2536 28 12.6298 28H26.0753C27.4289 28 28.6906 27.3154 29.4286 26.1807L36.4115 15.4427C37.3582 13.9869 37.2574 12.0865 36.1621 10.739L29.446 2.47692C28.6864 1.5425 27.5463 1 26.3421 1Z" stroke="#4663AC" stroke-width="2"/>
<path d="M19.9121 5L13.0868 8.50284C12.4196 8.84527 12 9.53222 12 10.2822V19.508C12 20.2408 12.4007 20.9149 13.0445 21.265L19.9121 25M19.9121 5V9.06061M19.9121 5L26.8974 8.50702C27.5733 8.84639 28 9.53804 28 10.2944V11.5455M19.9121 9.06061L12.9963 11.1212M19.9121 9.06061L28 11.5455M12.9963 11.1212V18.5758M12.9963 11.1212L20.7805 12.2376C20.9433 12.2609 21.1084 12.2641 21.2719 12.247L28 11.5455M12.9963 18.5758L19.9121 20.697M12.9963 18.5758L18.8571 17.7879L22.022 17.4084M19.9121 20.697V25M19.9121 20.697L28 18.5758M19.9121 25L26.9394 21.2613C27.5921 20.914 28 20.2349 28 19.4956V18.5758M28 18.5758L21.4945 17.5033M19.9121 12.2727L18.6377 12.5747C17.7358 12.7885 17.0989 13.5939 17.0989 14.5208V15.4536C17.0989 16.3357 17.6768 17.1137 18.5214 17.3684L19.9121 17.7879M19.9121 12.2727V17.7879M19.9121 12.2727L26.4958 13.1607C27.3572 13.2769 28 14.0122 28 14.8815V14.8815C28 15.7218 27.3981 16.4416 26.571 16.5903L22.022 17.4084M19.9121 17.7879L21.4945 17.5033M22.022 17.4084L21.4945 17.5033M14.9304 16.9394V16.9394C15.4159 16.9394 15.8095 16.5458 15.8095 16.0603V14.0559C15.8095 13.4869 15.2773 13.0678 14.7242 13.2013V13.2013C14.3294 13.2965 14.0513 13.6498 14.0513 14.0559V16.0603C14.0513 16.5458 14.4449 16.9394 14.9304 16.9394Z" stroke="#4663AC"/>
</svg>
