<svg width="39" height="29" viewBox="0 0 39 29" fill="none" xmlns="http://www.w3.org/2000/svg">
<path d="M26.3421 1H12.3636C11.1355 1 9.97534 1.56424 9.21705 2.5304L2.73729 10.7865C1.69511 12.1143 1.59869 13.9535 2.49628 15.3831L9.24217 26.127C9.97397 27.2925 11.2536 28 12.6298 28H26.0753C27.4289 28 28.6906 27.3154 29.4286 26.1807L36.4115 15.4427C37.3582 13.9869 37.2574 12.0865 36.1621 10.739L29.446 2.47692C28.6864 1.5425 27.5463 1 26.3421 1Z" stroke="#4663AC" stroke-width="2"/>
<path d="M14.2765 19.6952V22.2458L12.8926 21.6602V19.2427L14.2765 19.6952ZM15.9116 18.1488L15.1397 18.4341L14.3336 18.1486L15.1391 17.8129L15.9116 18.1488ZM17.2565 21.6795L16.1934 22.1992V19.6782L17.2565 19.2766V21.6795Z" fill="#4663AC" stroke="#4663AC"/>
<path d="M10.884 14.5601V17.1108L9.5 16.5252V14.1077L10.884 14.5601ZM12.5191 13.0138L11.7471 13.2991L10.941 13.0136L11.7466 12.6779L12.5191 13.0138ZM13.8639 16.5445L12.8009 17.0642V14.5432L13.8639 14.1416V16.5445Z" fill="#4663AC" stroke="#4663AC"/>
<path d="M17.4858 14.5601V17.1108L16.1018 16.5252V14.1077L17.4858 14.5601ZM19.1209 13.0138L18.3489 13.2991L17.5428 13.0136L18.3484 12.6779L19.1209 13.0138ZM20.4657 16.5445L19.4027 17.0642V14.5432L20.4657 14.1416V16.5445Z" fill="#4663AC" stroke="#4663AC"/>
<path d="M20.8781 9.42562V11.9762L19.4941 11.3907V8.97317L20.8781 9.42562ZM22.5132 7.87928L21.7412 8.16457L20.9351 7.87906L21.7407 7.5434L22.5132 7.87928ZM23.8581 11.41L22.795 11.9297V9.40864L23.8581 9.00705V11.41Z" fill="#4663AC" stroke="#4663AC"/>
<path d="M26.9299 9.42562V11.9762L25.5459 11.3907V8.97317L26.9299 9.42562ZM28.565 7.87928L27.793 8.16457L26.9869 7.87906L27.7925 7.5434L28.565 7.87928ZM29.9098 11.41L28.8468 11.9297V9.40864L29.9098 9.00705V11.41Z" fill="#4663AC" stroke="#4663AC"/>
</svg>
