<svg width="22" height="16" viewBox="0 0 22 16" fill="none" xmlns="http://www.w3.org/2000/svg">
<path d="M18 1H4C2.34315 1 1 2.34314 1 4V9.83946C1 11.4963 2.34315 12.8395 4 12.8395H11H18C19.6569 12.8395 21 11.4963 21 9.83947V4C21 2.34315 19.6569 1 18 1Z" fill="#DAB998"/>
<path d="M11 12.8395H18C19.6569 12.8395 21 11.4963 21 9.83947V4C21 2.34315 19.6569 1 18 1H4C2.34315 1 1 2.34314 1 4V9.83946C1 11.4963 2.34315 12.8395 4 12.8395H11ZM11 12.8395V12.8395C11 14.2802 9.83205 15.4482 8.3913 15.4482H5.94983H15.8495" stroke="#DAB998"/>
<path d="M8.79068 3.54412C8.79068 3.54412 6.64007 2.93728 5.51309 3.54412C3.42012 4.6711 3.42012 8.50409 5.51309 9.63108C6.64007 10.2379 8.79068 9.63108 8.79068 9.63108" stroke="white" stroke-width="0.7"/>
<path d="M7.35547 4.87977H8.76511C9.88356 4.87977 10.9211 4.29668 11.5026 3.34131V3.34131" stroke="white" stroke-width="0.7"/>
<path d="M7.55469 8.49181H8.96433C10.0828 8.49181 11.1203 9.0749 11.7018 10.0303V10.0303" stroke="white" stroke-width="0.7"/>
<path d="M12.7734 3.94287H16.9206" stroke="white" stroke-width="0.7"/>
<circle cx="17.2543" cy="3.87591" r="0.869565" fill="white"/>
<path d="M12.7734 6.61865H16.9206" stroke="white" stroke-width="0.7"/>
<circle cx="17.2543" cy="6.55169" r="0.869565" fill="white"/>
<path d="M12.7734 9.56201H16.9206" stroke="white" stroke-width="0.7"/>
<circle cx="17.2543" cy="9.49505" r="0.869565" fill="white"/>
<path d="M7.41992 6.68555H11.6361" stroke="white" stroke-width="0.7"/>
</svg>
