<svg width="39" height="29" viewBox="0 0 39 29" fill="none" xmlns="http://www.w3.org/2000/svg">
<path d="M26.3421 1H12.3636C11.1355 1 9.97534 1.56424 9.21705 2.5304L2.73729 10.7865C1.69511 12.1143 1.59869 13.9535 2.49628 15.3831L9.24217 26.127C9.97397 27.2925 11.2536 28 12.6298 28H26.0753C27.4289 28 28.6906 27.3154 29.4286 26.1807L36.4115 15.4427C37.3582 13.9869 37.2574 12.0865 36.1621 10.739L29.446 2.47692C28.6864 1.5425 27.5463 1 26.3421 1Z" stroke="#4663AC" stroke-width="2"/>
<path d="M20 20.0234H26C28.7614 20.0234 31 17.7848 31 15.0234V12C31 9.23858 28.7614 7 26 7H14C11.2386 7 9 9.23858 9 12V15.0234C9 17.7848 11.2386 20.0234 14 20.0234H20ZM20 20.0234V20.0234C20 21.6082 18.7153 22.893 17.1304 22.893H14.4448H25.3344" stroke="#4663AC"/>
<path d="M17.5694 9.79802C17.5694 9.79802 15.2037 9.1305 13.964 9.79802C11.6617 11.0377 11.6617 15.254 13.964 16.4937C15.2037 17.1612 17.5694 16.4937 17.5694 16.4937" stroke="#4663AC"/>
<path d="M15.99 11.2674H17.5406C18.7709 11.2674 19.9122 10.626 20.5519 9.57507V9.57507" stroke="#4663AC"/>
<path d="M16.2107 15.2412H17.7613C18.9916 15.2412 20.1329 15.8826 20.7726 16.9335V16.9335" stroke="#4663AC"/>
<path d="M21.95 10.2372H26.5118" stroke="#4663AC"/>
<circle cx="26.8794" cy="10.164" r="0.956522" fill="#4663AC"/>
<path d="M21.95 13.1805H26.5118" stroke="#4663AC"/>
<circle cx="26.8794" cy="13.1074" r="0.956522" fill="#4663AC"/>
<path d="M21.95 16.4178H26.5118" stroke="#4663AC"/>
<circle cx="26.8794" cy="16.3446" r="0.956522" fill="#4663AC"/>
<path d="M16.0625 13.2543H20.7003" stroke="#4663AC"/>
</svg>
