<svg width="22" height="16" viewBox="0 0 22 16" fill="none" xmlns="http://www.w3.org/2000/svg">
<path d="M11 12.8395H18C19.6569 12.8395 21 11.4963 21 9.83947V4C21 2.34315 19.6569 1 18 1H4C2.34315 1 1 2.34314 1 4V9.83946C1 11.4963 2.34315 12.8395 4 12.8395H11ZM11 12.8395V12.8395C11 14.2802 9.83205 15.4482 8.3913 15.4482H5.94983H15.8495" stroke="#6382C1"/>
<path d="M8.79044 3.54388C8.79044 3.54388 6.63983 2.93704 5.51284 3.54388C3.41987 4.67086 3.41987 8.50385 5.51284 9.63083C6.63983 10.2377 8.79044 9.63083 8.79044 9.63083" stroke="#6382C1"/>
<path d="M7.35449 4.87977H8.76414C9.88258 4.87977 10.9201 4.29668 11.5016 3.34131V3.34131" stroke="#6382C1"/>
<path d="M7.55518 8.49181H8.96482C10.0833 8.49181 11.1208 9.0749 11.7023 10.0303V10.0303" stroke="#6382C1"/>
<path d="M12.7725 3.94299H16.9196" stroke="#6382C1"/>
<circle cx="17.2541" cy="3.87616" r="0.869565" fill="#6382C1"/>
<path d="M12.7725 6.61853H16.9196" stroke="#6382C1"/>
<circle cx="17.2541" cy="6.55194" r="0.869565" fill="#6382C1"/>
<path d="M12.7725 9.56189H16.9196" stroke="#6382C1"/>
<circle cx="17.2541" cy="9.49493" r="0.869565" fill="#6382C1"/>
<path d="M7.42041 6.68567H11.6366" stroke="#6382C1"/>
</svg>
