<svg width="79" height="74" viewBox="0 0 79 74" fill="none" xmlns="http://www.w3.org/2000/svg">
<path d="M66.9781 12.13C50.8609 -2.71001 24.1391 -2.71 8.02185 12.13C-3.78013 22.9967 2.05005 46.7357 5.75555 58.0521C7.00859 61.8788 10.6413 64.2925 14.6679 64.2925H60.3321C64.3587 64.2925 67.9914 61.8788 69.2444 58.0521C72.95 46.7357 78.7801 22.9967 66.9781 12.13Z" stroke="#928F8F" stroke-width="2"/>
<circle cx="37.3052" cy="25.6573" r="11.6197" stroke="#928F8F" stroke-width="2"/>
<path d="M18.4049 64.2903C18.4049 64.2903 14.1891 53.8079 18.4049 48.5002C25.5335 39.5253 47.1354 39.5253 54.2639 48.5002C58.4797 53.8079 54.2639 64.2903 54.2639 64.2903" stroke="#928F8F" stroke-width="2"/>
<circle cx="63" cy="58" r="15" fill="white" stroke="#928F8F" stroke-width="2"/>
<path d="M55.0849 50.7077V50.2769C55.0849 49.0194 56.1043 48 57.3618 48H62.2849C63.5424 48 64.5618 49.0194 64.5618 50.2769C64.5618 51.5344 65.5812 52.5538 66.8387 52.5538H70.3926C73.154 52.5538 75.3926 54.7924 75.3926 57.5539V60.2308C75.3926 62.9922 73.154 65.2308 70.3926 65.2308H56.3926C53.6312 65.2308 51.3926 62.9922 51.3926 60.2308V54.4C51.3926 53.3804 52.2191 52.5538 53.2387 52.5538C54.2583 52.5538 55.0849 51.7273 55.0849 50.7077Z" stroke="#8C8C8C" stroke-width="2"/>
<circle cx="63.331" cy="59.0761" r="2.69231" stroke="#928F8F" stroke-width="2"/>
</svg>
