<svg width="7" height="7" viewBox="0 0 7 7" fill="none" xmlns="http://www.w3.org/2000/svg">
<path d="M6.04116 1.62174C6.22422 1.43868 6.22422 1.14189 6.04116 0.958827C5.8581 0.775769 5.5613 0.775769 5.37824 0.958827L3.49999 2.83708L1.62175 0.958827C1.43869 0.775769 1.14189 0.775769 0.958833 0.958827C0.775774 1.14189 0.775775 1.43868 0.958833 1.62174L2.83708 3.49999L0.958827 5.37824C0.775769 5.5613 0.775769 5.8581 0.958827 6.04116C1.14189 6.22422 1.43868 6.22422 1.62174 6.04116L3.49999 4.1629L5.37825 6.04116C5.56131 6.22422 5.8581 6.22422 6.04116 6.04116C6.22422 5.8581 6.22422 5.5613 6.04116 5.37825L4.16291 3.49999L6.04116 1.62174Z" fill="black"/>
</svg>
