<svg width="6" height="6" viewBox="0 0 6 6" fill="none" xmlns="http://www.w3.org/2000/svg">
<path d="M5.71018 0.99662C5.90544 0.801358 5.90544 0.484775 5.71018 0.289513C5.51492 0.0942509 5.19833 0.0942509 5.00307 0.289513L2.9996 2.29298L0.996138 0.289513C0.800876 0.0942513 0.484293 0.0942511 0.289031 0.289513C0.0937688 0.484775 0.0937689 0.801358 0.289031 0.99662L2.2925 3.00009L0.289025 5.00356C0.0937627 5.19882 0.0937625 5.5154 0.289025 5.71066C0.484287 5.90593 0.80087 5.90593 0.996132 5.71066L2.9996 3.70719L5.00308 5.71067C5.19834 5.90593 5.51492 5.90593 5.71018 5.71067C5.90545 5.5154 5.90545 5.19882 5.71018 5.00356L3.70671 3.00009L5.71018 0.99662Z" fill="black"/>
</svg>
