<svg width="39" height="19" viewBox="0 0 39 19" fill="none" xmlns="http://www.w3.org/2000/svg">
<path d="M13.5294 12.3659C11.7466 13.9514 11.5 17.6753 11.5 17.6753L9 17.6752C9 17.6752 9.58682 13.0516 13 10.4997C18.3139 6.52668 21.7067 6.49925 27 10.4997C30.387 13.0595 31 17.6753 31 17.6753L29 17.6753C29 17.6753 27.9176 13.9663 26.1901 12.3659C22.5631 9.00572 17.2241 9.08023 13.5294 12.3659Z" fill="#4663AC" stroke="#4663AC" stroke-width="2"/>
<path d="M24.5 17.9999H15.0599C15.0599 17.9999 14.8205 16.676 15.5 15.4999C17.1756 12.5998 22.5002 12.4997 24.0002 15.4997C24.6273 16.7541 24.5 17.9999 24.5 17.9999Z" fill="#4663AC" stroke="#4663AC" stroke-width="2"/>
<path d="M6.46325 6.17573C0.991211 10.7352 1 17.5937 1 17.5937H5.49988C5.49988 17.5937 6.27234 10.6462 9.98382 7.93053C16.6817 3.02961 24.088 2.24401 30.3326 8.17558C33.9708 11.6315 33.9999 17.5937 33.9999 17.5937H37.4999C37.4999 17.5937 38.7039 10.8333 33.5 6.17573C25.6325 -0.865837 14.5749 -0.583204 6.46325 6.17573Z" fill="#4663AC" stroke="#4663AC" stroke-width="2"/>
</svg>
