<svg width="20" height="21" viewBox="0 0 20 21" fill="none" xmlns="http://www.w3.org/2000/svg">
<path d="M4.27701 10.3701C4.93384 9.56663 6.11766 9.44775 6.92114 10.1046L10.524 13.0498C11.3274 13.7067 11.4463 14.8905 10.7895 15.694L9.88352 16.8022C8.41338 18.6006 5.76373 18.8667 3.96535 17.3965C2.16698 15.9264 1.90089 13.2767 3.37103 11.4784L4.27701 10.3701Z" fill="#4663AC"/>
<path d="M6.95166 10.1294L7.97995 10.97L6.13492 13.227C5.90279 13.5109 5.48442 13.5529 5.20047 13.3208C4.91652 13.0887 4.8745 12.6703 5.10663 12.3864L6.95166 10.1294Z" fill="white"/>
<path d="M9.46533 12.1851L10.4936 13.0257L8.64859 15.2826C8.41646 15.5666 7.9981 15.6086 7.71414 15.3765C7.43019 15.1443 7.38817 14.726 7.6203 14.442L9.46533 12.1851Z" fill="white"/>
<path d="M15.6056 9.80303C14.9318 10.5924 13.7416 10.6908 12.9473 10.0228L9.38638 7.02807C8.59207 6.36006 8.49442 5.17862 9.16828 4.38925L10.0981 3.30005C11.6062 1.53351 14.2697 1.31336 16.0474 2.80834C17.825 4.30331 18.0435 6.94729 16.5355 8.71383L15.6056 9.80303Z" fill="#4663AC"/>
<path d="M11.2578 11.8557C11.0197 12.1346 10.5991 12.1694 10.3184 11.9333C10.0378 11.6973 10.0033 11.2798 10.2414 11.0009L12.1898 8.71853C12.4279 8.4396 12.8484 8.40484 13.1291 8.64089C13.4098 8.87694 13.4443 9.29441 13.2062 9.57334L11.2578 11.8557Z" fill="#4663AC"/>
<path d="M8.7329 10.124C8.49479 10.4029 8.07422 10.4377 7.79355 10.2016C7.51287 9.96558 7.47836 9.54811 7.71648 9.26918L9.36676 7.33602C9.60488 7.0571 10.0254 7.02234 10.3061 7.25838C10.5868 7.49443 10.6213 7.9119 10.3832 8.19083L8.7329 10.124Z" fill="#4663AC"/>
</svg>
