<svg width="39" height="29" viewBox="0 0 39 29" fill="none" xmlns="http://www.w3.org/2000/svg">
<path d="M26.3421 1H12.3636C11.1355 1 9.97534 1.56424 9.21705 2.5304L2.73729 10.7865C1.69511 12.1143 1.59869 13.9535 2.49628 15.3831L9.24217 26.127C9.97397 27.2925 11.2536 28 12.6298 28H26.0753C27.4289 28 28.6906 27.3154 29.4286 26.1807L36.4115 15.4427C37.3582 13.9869 37.2574 12.0865 36.1621 10.739L29.446 2.47692C28.6864 1.5425 27.5463 1 26.3421 1Z" stroke="#4663AC" stroke-width="2"/>
<path d="M11.4778 7.70796L13.8548 9.17612C14.0734 9.31113 14.316 9.40276 14.5692 9.446L17.2842 9.90953C17.3954 9.92851 17.508 9.93805 17.6208 9.93805H17.8608C18.4518 9.93805 19.0048 10.2297 19.3386 10.7175L19.4472 10.8762C19.695 11.2385 19.7591 11.6959 19.6203 12.1124V12.1124C19.4611 12.5901 19.058 12.9459 18.5642 13.0447L18.0881 13.1399C17.8773 13.182 17.6611 13.1899 17.4478 13.1633L15.3777 12.9045C15.2735 12.8915 15.1705 12.8703 15.0697 12.8411L12.6512 12.141C12.351 12.0541 12.0754 11.8981 11.8464 11.6855L11.7187 11.5669C11.3112 11.1885 11.0796 10.6575 11.0796 10.1013V8.4255C11.0796 7.96162 11.2408 7.51216 11.5357 7.15408L11.818 6.81132C12.0638 6.51284 12.3909 6.29201 12.7596 6.17557L15.0344 5.4572C15.1586 5.41798 15.2864 5.39099 15.4158 5.3766L18.8053 5H21.3669C21.4643 5 21.5616 5.00711 21.6579 5.02128L24.2212 5.39823L26.7983 6.0251C27.0426 6.08453 27.2736 6.1895 27.479 6.3345L28.5221 7.0708M28.5221 7.0708V7.0708C28.5221 7.48099 28.3702 7.87667 28.0958 8.18157L28.0496 8.2329C27.8883 8.41217 27.6933 8.55798 27.4757 8.66203L26.3827 9.1848C26.1132 9.31365 25.8184 9.38053 25.5197 9.38053H25.0913C24.5387 9.38053 24.0133 9.62045 23.6513 10.0381L23.6118 10.0836C23.337 10.4007 23.1858 10.8062 23.1858 11.2257V11.4895C23.1858 11.8198 23.3271 12.1344 23.574 12.3539V12.3539C23.7857 12.5421 24.0591 12.646 24.3423 12.646H25.6355C25.8592 12.646 26.0813 12.6085 26.2925 12.535L27.4089 12.1467C27.6703 12.0558 27.91 11.9116 28.1128 11.7233L28.2812 11.5669C28.6887 11.1885 28.9203 10.6575 28.9203 10.1013V7.659C28.9203 7.39995 28.7626 7.167 28.5221 7.0708V7.0708Z" stroke="#4663AC" stroke-linecap="round"/>
<path d="M12.0354 13.6017L11.364 13.2288C11.3345 13.2124 11.3112 13.1868 11.2975 13.156C11.2293 13.0026 11 13.0513 11 13.2191V15.9796C11 16.1897 11.0892 16.39 11.2454 16.5305L11.5425 16.798C11.71 16.9487 11.9068 17.0633 12.1206 17.1346L12.305 17.196C12.4434 17.2422 12.5764 17.3033 12.7015 17.3784L12.9688 17.5388C13.1919 17.6726 13.4472 17.7433 13.7073 17.7433C14.0179 17.7433 14.3202 17.6426 14.5686 17.4562L14.823 17.2655L15.0002 17.1326C15.2898 16.9154 15.4602 16.5746 15.4602 16.2126C15.4602 16.0663 15.4323 15.9213 15.3779 15.7855L15.2414 15.4442C15.1754 15.2791 15.0812 15.1267 14.9631 14.9938L14.8166 14.829C14.618 14.6056 14.3334 14.4778 14.0346 14.4778C13.8722 14.4778 13.712 14.44 13.5667 14.3674L12.8319 14L12.0354 13.6017Z" stroke="#4663AC" stroke-linecap="round"/>
<path d="M20.9558 14.8761H20.0768C19.6151 14.8761 19.1676 15.0358 18.8103 15.3282L18.6886 15.4277C18.5552 15.5368 18.4437 15.6703 18.36 15.8209C18.186 16.1341 18.1422 16.5032 18.2381 16.8484L18.2729 16.9735C18.4082 17.4606 18.7555 17.8609 19.2187 18.0636L19.3778 18.1332C19.6306 18.2438 19.9035 18.3009 20.1794 18.3009H20.9558H22.4013C22.4994 18.3009 22.5974 18.2936 22.6944 18.2793L24.6991 17.9823L26.292 17.7433L27.4459 17.404C27.5789 17.3648 27.7076 17.312 27.8297 17.2462L28.188 17.0533C28.5068 16.8816 28.7551 16.6034 28.8896 16.2672L28.9283 16.1704C28.9757 16.052 29 15.9256 29 15.798V13.0352C29 12.8709 28.7869 12.8064 28.6957 12.9431C28.6862 12.9573 28.6746 12.97 28.6613 12.9807L28.0504 13.4694C27.9404 13.5574 27.8214 13.6335 27.6954 13.6965L27.0885 14L25.9791 14.416C25.8693 14.4572 25.7562 14.4886 25.641 14.5099L23.8443 14.8426C23.7242 14.8649 23.6023 14.8761 23.4801 14.8761H22.3097H20.9558Z" stroke="#4663AC" stroke-linecap="round"/>
<path d="M11.5442 18.5265L11.3342 18.3164C11.3238 18.3061 11.3149 18.2944 11.3076 18.2817C11.2239 18.1351 11 18.1945 11 18.3634V21.0913C11 21.246 11.0404 21.3981 11.1171 21.5324L11.1432 21.578C11.2572 21.7775 11.4314 21.9357 11.6409 22.03L12.9115 22.6017L14.5044 23.1593L16.0378 23.5078C16.1832 23.5408 16.3319 23.5575 16.481 23.5575H18.0885H18.5664C18.7241 23.5575 18.8803 23.5263 19.0259 23.4656C19.4711 23.2801 19.7611 22.8451 19.7611 22.3628V21.6336C19.7611 21.4322 19.7142 21.2336 19.6241 21.0536C19.458 20.7212 19.1573 20.4761 18.7983 20.3804L18.1681 20.2124L17.0765 20.0077C16.955 19.9849 16.8316 19.9734 16.7079 19.9734H15.7847C15.5698 19.9734 15.3562 19.9388 15.1523 19.8708L14.5044 19.6548L13.6283 19.4159L13.0634 19.3029C12.9096 19.2721 12.7599 19.2234 12.6175 19.1577L12.1203 18.9282C11.9061 18.8293 11.7111 18.6933 11.5442 18.5265Z" stroke="#4663AC" stroke-linecap="round"/>
<path d="M24.9381 19.6548L24.3023 19.8138C23.897 19.9151 23.5562 20.1885 23.3693 20.5622C23.3006 20.6997 23.2544 20.8475 23.2326 20.9998L23.2133 21.1355C23.1452 21.6122 23.2841 22.0952 23.5952 22.4628C23.8456 22.7587 24.1903 22.9593 24.5714 23.0308L24.8618 23.0852C25.1224 23.1341 25.3902 23.1306 25.6494 23.0751L26.1684 22.9639C26.3036 22.9349 26.4353 22.892 26.5616 22.8359L27.0885 22.6017L27.6453 22.4347C27.8044 22.387 27.957 22.3195 28.0996 22.234L28.4083 22.0488C28.5874 21.9413 28.7358 21.7897 28.8394 21.6084C28.9447 21.4243 29 21.2158 29 21.0038V17.9026C29 17.8146 28.9287 17.7433 28.8407 17.7433C28.7527 17.7433 28.6814 17.8146 28.6814 17.9026V18.0993C28.6814 18.2243 28.6158 18.3402 28.5086 18.4045L27.885 18.7787L27.3856 19.0784C27.189 19.1963 26.9736 19.2796 26.7488 19.3245L26.292 19.4159L24.9381 19.6548Z" stroke="#4663AC" stroke-linecap="round"/>
</svg>
