<svg width="29" height="23" viewBox="0 0 29 23" fill="none" xmlns="http://www.w3.org/2000/svg">
<circle cx="10.5946" cy="12.3514" r="9.5946" stroke="white" stroke-width="2"/>
<path d="M10.099 15.2739L6.34413 16.2438C5.47162 16.4692 4.76957 15.5162 5.24349 14.7497L7.18074 11.6167C7.26233 11.4847 7.37351 11.3735 7.50547 11.292L19.9793 3.58128C20.4238 3.30653 21.0049 3.42031 21.3129 3.84242L23.0735 6.25509C23.4198 6.72967 23.2844 7.39912 22.7808 7.70172L10.3639 15.1629C10.2814 15.2125 10.1922 15.2499 10.099 15.2739Z" stroke="white" stroke-width="2"/>
<path d="M24.9344 4.96053L23.6659 3.31147C23.2922 2.82562 23.4395 2.12094 23.9766 1.82554L24.7404 1.40546C25.1665 1.17111 25.6994 1.27725 26.0032 1.65698L27.2853 3.25967C27.6636 3.73248 27.5382 4.43033 27.019 4.74186L26.2415 5.20831C25.8061 5.46956 25.244 5.36301 24.9344 4.96053Z" stroke="white" stroke-width="2"/>
</svg>
