<svg width="17" height="20" viewBox="0 0 17 20" fill="none" xmlns="http://www.w3.org/2000/svg">
<path d="M5.1158 3.81002L9.55452 5.57851C9.55452 5.57851 8.98319 2.07514 10.1671 1.30271C11.8482 0.205867 13.5217 1.49602 13.9879 3.44843C14.3163 4.82336 11.8411 6.48955 11.8411 6.48955L16.2798 8.25804L14.5382 12.6295C14.5382 12.6295 13.0875 11.2875 12.1843 11.6917C11.3069 12.0843 10.9062 13.0899 11.2733 13.9783C11.6511 14.8928 13.6271 14.9161 13.6271 14.9161L11.8318 19.4221L8.20016 17.9751C8.20016 17.9751 9.98973 16.1185 9.35235 15.0832C8.87803 14.3129 8.07439 13.9927 7.20025 14.2258C6.02561 14.5391 6.04805 17.1177 6.04805 17.1177L0.667788 14.9741L2.46307 10.4681C2.46307 10.4681 4.75742 12.7067 5.96024 11.8615C6.7467 11.3088 8.06885 9.35947 7.87795 8.41737C7.58598 6.97652 3.91 6.83645 3.91 6.83645L5.1158 3.81002Z" fill="#4663AC"/>
</svg>
