<svg width="39" height="29" viewBox="0 0 39 29" fill="none" xmlns="http://www.w3.org/2000/svg">
<path d="M26.3421 1H12.3636C11.1355 1 9.97534 1.56424 9.21705 2.5304L2.73729 10.7865C1.69511 12.1143 1.59869 13.9535 2.49628 15.3831L9.24217 26.127C9.97397 27.2925 11.2536 28 12.6298 28H26.0753C27.4289 28 28.6906 27.3154 29.4286 26.1807L36.4115 15.4427C37.3582 13.9869 37.2574 12.0865 36.1621 10.739L29.446 2.47692C28.6864 1.5425 27.5463 1 26.3421 1Z" stroke="#C68D53" stroke-width="2"/>
<path d="M23.125 5.08252V6.77987" stroke="#C68D53" stroke-width="1.2" stroke-linecap="round"/>
<path d="M23.043 9V14.2983" stroke="#C68D53" stroke-width="1.2" stroke-linecap="round"/>
<path d="M21.3906 6.75V9.29602" stroke="#C68D53" stroke-width="1.2" stroke-linecap="round"/>
<path d="M21.3242 12V14.7983" stroke="#C68D53" stroke-width="1.2" stroke-linecap="round"/>
<path d="M19.6914 7.57422V8.42289" stroke="#C68D53" stroke-width="1.2" stroke-linecap="round"/>
<path d="M19.625 10.5V15.2983" stroke="#C68D53" stroke-width="1.2" stroke-linecap="round"/>
<path d="M18.0078 5V9.24336" stroke="#C68D53" stroke-width="1.2" stroke-linecap="round"/>
<path d="M17.9297 11.5V15.7983" stroke="#C68D53" stroke-width="1.2" stroke-linecap="round"/>
<path d="M16.3203 5.8208V7.51815" stroke="#C68D53" stroke-width="1.2" stroke-linecap="round"/>
<path d="M16.2422 9.5V16.7983" stroke="#C68D53" stroke-width="1.2" stroke-linecap="round"/>
<path d="M23.1989 14.7092L15.6989 17.0776C15.2828 17.209 15 17.5949 15 18.0312V21.7983C15 22.3506 15.4477 22.7983 16 22.7983H23.5C24.0523 22.7983 24.5 22.3506 24.5 21.7983V15.6628C24.5 14.9869 23.8434 14.5057 23.1989 14.7092Z" stroke="#C68D53" stroke-width="1.2" stroke-linecap="round"/>
</svg>
