<svg width="135" height="177" viewBox="0 0 135 177" fill="none" xmlns="http://www.w3.org/2000/svg">
<circle cx="63.724" cy="112.724" r="62.656" stroke="#121212" stroke-width="2.136"/>
<path d="M56.0233 136.019L40.1601 143.989C40.0461 144.046 39.9272 144.093 39.8048 144.13L28.8379 147.36C28.6899 147.404 28.5376 147.431 28.3837 147.442L22.2368 147.873C20.4855 147.996 19.622 150.062 20.7648 151.395L23.9196 155.073C24.0168 155.187 24.1257 155.29 24.2445 155.38L27.4779 157.85L31.6482 160.828L36.1976 163.434L41.8844 166.413L46.1807 168.522C46.3487 168.605 46.5268 168.665 46.7104 168.701L54.0161 170.135L58.3941 170.852C58.5082 170.871 58.6236 170.88 58.7391 170.88H62.7358H67.3439C67.5563 170.88 67.7675 170.848 67.9706 170.786L73.537 169.078C73.6655 169.038 73.79 168.987 73.9088 168.924L78.1588 166.677C78.4864 166.504 78.7633 166.248 78.9623 165.936L80.47 163.567C80.5259 163.479 80.5941 163.399 80.6726 163.331L81.5645 162.552C82.188 162.008 83.1242 162.661 82.829 163.434L81.36 166.319C81.3285 166.381 81.2873 166.437 81.2379 166.486C80.727 166.988 81.299 167.822 81.9512 167.526L88.5157 164.551L95.5116 160.574C95.6494 160.495 95.7781 160.402 95.8952 160.295L101.027 155.616L105.731 151.863C106.523 151.23 106.762 150.128 106.302 149.224L105.955 148.543L103.68 142.214L101.027 136.257L99.5759 131.271C99.5322 131.121 99.5051 130.966 99.4952 130.81L98.7519 119.132L99.5101 108.708L100.346 103.785C100.52 102.758 101.41 102.007 102.451 102.007H104.439L110.884 101.262L116.402 100.901C116.514 100.894 116.625 100.877 116.735 100.853L121.341 99.8089C121.446 99.785 121.549 99.7533 121.65 99.7138L125.085 98.3644C125.221 98.3109 125.352 98.2435 125.474 98.1634L129.52 95.5147C129.731 95.3764 129.916 95.2018 130.067 94.9989L132.688 91.4599C132.81 91.2945 132.908 91.1122 132.979 90.9187L134.073 87.9088C134.462 86.8388 133.944 85.6516 132.894 85.2099L126.807 82.6479L115.054 78.5527L100.647 73.7129L97.6145 72.2238L94.9429 70.912C94.7041 70.7948 94.4894 70.634 94.3096 70.4379L91.2795 67.1318C91.2063 67.0519 91.1271 66.9777 91.0427 66.9098L86.9993 63.6612L83.6665 61.5573C82.6055 60.8875 82.3476 59.4517 83.1092 58.4546L84.9401 56.0573C85.0487 55.9151 85.139 55.7598 85.2089 55.5951L86.9993 51.3757L88.8313 47.058C88.8736 46.9583 88.9083 46.8555 88.935 46.7506L90.3723 41.1049C90.3983 41.0029 90.4167 40.899 90.4273 40.7943L91.1696 33.5059V26.2117C91.1696 25.6385 90.9391 25.0893 90.5301 24.6877L88.2938 22.4916C88.1895 22.3892 88.072 22.301 87.9445 22.2295L86.7815 21.5768C86.2002 21.2507 85.4828 21.6708 85.4828 22.3373V28.4757C85.4828 28.6024 85.4715 28.7289 85.4491 28.8535L84.3455 34.995L83.2081 39.8348L81.6916 45.4191L79.5457 50.6873C79.4604 50.8967 79.3424 51.0912 79.1961 51.2636L77.869 52.8275C77.6408 53.0964 77.3495 53.3046 77.0213 53.4335L76.7464 53.5415C76.0508 53.8148 75.2629 53.7046 74.6689 53.2509L72.2137 51.3757L69.939 49.142L66.6321 45.5338C66.5621 45.4574 66.4977 45.3761 66.4396 45.2903L63.8182 41.4291C63.607 41.118 63.494 40.7506 63.494 40.3745C63.494 40.0218 63.5933 39.6763 63.7806 39.3774L66.3945 35.2064C66.4825 35.066 66.5539 34.9157 66.6072 34.7588L68.4225 29.4107L69.939 24.1987L70.6972 19.359L71.0764 13.0301V7.81804V3.50217C71.0764 2.92893 70.846 2.37976 70.437 1.97812L69.5013 1.05928C69.291 0.852826 69.032 0.702839 68.7483 0.623242L68.2193 0.474818C67.3695 0.236399 66.527 0.875108 66.527 1.7577C66.527 1.82675 66.5216 1.89571 66.5109 1.96393L65.7945 6.53687C65.7773 6.64624 65.7687 6.75678 65.7687 6.86748V11.3505C65.7687 11.4772 65.7575 11.6036 65.735 11.7283L64.6314 17.8698L63.494 22.3373L61.5984 27.177L59.2921 33.3244C59.1286 33.7601 58.5709 33.8835 58.2389 33.5574C58.204 33.5232 58.1731 33.4851 58.1469 33.4438L56.4288 30.7445C56.3371 30.6004 56.2631 30.4459 56.2082 30.2841L54.7743 26.0601L53.2579 21.5927L51.7414 16.7529L50.2249 10.0518L49.5519 4.10355C49.4968 3.61645 49.2758 3.16313 48.926 2.81966L47.2417 1.16567C46.9669 0.895786 46.5971 0.744575 46.2119 0.744575C45.4719 0.744575 44.8473 1.29472 44.7538 2.02879L44.5382 3.72288V8.56261V13.8279C44.5382 14.0394 44.5696 14.2497 44.6314 14.452L45.6755 17.8698L47.9502 26.0601L52.0572 36.6926C52.0993 36.8017 52.1504 36.9071 52.2097 37.0078L56.2908 43.9299L61.5984 51.0034L68.4225 58.8214L74.2848 64.2183C74.42 64.3428 74.5706 64.4492 74.7331 64.5351L77.0764 65.7742C78.1597 66.347 78.2718 67.8551 77.2852 68.5818C76.7404 68.983 76.0068 69.014 75.4301 68.6601L73.3511 67.3841L66.9129 62.1156C66.659 61.9078 66.3607 61.7613 66.041 61.6875L60.479 60.4023C60.2167 60.3417 59.9453 60.3312 59.6791 60.3715L53.0702 61.3699C51.6535 61.5839 50.8451 63.1046 51.4601 64.3988L52.7305 67.0722C52.8287 67.2788 52.9594 67.4682 53.1177 67.6333L58.7198 73.4783C58.8688 73.6339 59.0405 73.7659 59.2291 73.8701L64.7739 76.9328C64.931 77.0196 65.0984 77.0863 65.2722 77.1312L70.861 78.5754C71.6827 78.7878 72.3008 79.4664 72.4355 80.3044L73.324 85.83C73.342 85.9421 73.3511 86.0555 73.3511 86.1691V106.589C73.3511 106.76 73.3306 106.93 73.29 107.096L71.1497 115.854C71.1011 116.053 71.024 116.244 70.921 116.421L66.527 123.972L62.5008 130.082C62.4051 130.227 62.2919 130.36 62.1639 130.478L56.5111 135.682C56.3649 135.817 56.2008 135.93 56.0233 136.019Z" fill="#C68D53"/>
</svg>
