<svg width="14" height="14" viewBox="0 0 14 14" fill="none" xmlns="http://www.w3.org/2000/svg">
<path d="M5.6875 9.1875H11.4494L10.3206 10.3206L10.9375 10.9375L13.125 8.75L10.9375 6.5625L10.3206 7.17937L11.4494 8.3125H5.6875V9.1875Z" fill="#C68D53"/>
<path d="M9.625 6.12501V4.37501C9.62533 4.31743 9.6143 4.26035 9.59253 4.20705C9.57075 4.15374 9.53867 4.10526 9.49812 4.06438L6.43563 1.00188C6.39474 0.961334 6.34626 0.929254 6.29296 0.907482C6.23966 0.88571 6.18258 0.874674 6.125 0.875007H1.75C1.51794 0.875007 1.29538 0.967194 1.13128 1.13129C0.967187 1.29538 0.875 1.51794 0.875 1.75001V12.25C0.875 12.4821 0.967187 12.7046 1.13128 12.8687C1.29538 13.0328 1.51794 13.125 1.75 13.125H8.75C8.98206 13.125 9.20462 13.0328 9.36872 12.8687C9.53281 12.7046 9.625 12.4821 9.625 12.25V11.375H8.75V12.25H1.75V1.75001H5.25V4.37501C5.25 4.60707 5.34219 4.82963 5.50628 4.99373C5.67038 5.15782 5.89294 5.25001 6.125 5.25001H8.75V6.12501H9.625ZM6.125 4.37501V1.92938L8.57063 4.37501H6.125Z" fill="#C68D53"/>
</svg>
