<svg width="9" height="13" viewBox="0 0 9 13" fill="none" xmlns="http://www.w3.org/2000/svg">
<path d="M7 0H2C0.895431 0 0 0.895429 0 2V2.11255C0 2.62978 0.200385 3.1269 0.559088 3.49955L3.20282 6.24604C3.56152 6.61868 3.7619 7.1158 3.7619 7.63304V11.6526C3.7619 12.5588 4.83461 13.0376 5.50914 12.4324C5.73061 12.2337 5.85714 11.9502 5.85714 11.6526V7.53128C5.85714 7.07539 6.01289 6.63318 6.29859 6.27792L8.55855 3.46767C8.84425 3.1124 9 2.6702 9 2.21431V2C9 0.895431 8.10457 0 7 0Z" fill="#4663AC"/>
</svg>
