<svg width="39" height="29" viewBox="0 0 39 29" fill="none" xmlns="http://www.w3.org/2000/svg">
<path d="M25.5181 19.237H12.7978C12.5671 19.237 12.3365 19.2125 12.1172 19.1408C11.7976 19.0363 11.3267 18.8479 11.0681 18.5815C10.6194 18.1193 10.5774 17.6834 10.4496 17.0519C10.3113 16.3688 10.4642 15.4893 10.777 14.8667C10.9811 14.4606 11.368 14.3178 11.5649 14.2701C11.645 14.2507 11.7259 14.2341 11.8038 14.2073C12.411 13.9989 12.6803 13.294 12.5227 12.6717C12.4453 12.3658 12.4027 12.0443 12.4506 11.7711C12.566 11.1125 12.6196 10.8168 12.9599 10.2415C13.2752 9.7083 13.6732 9.35488 14.1241 8.93039C14.6425 8.44235 15.0686 8.29276 15.7612 8.12917C16.4803 7.95935 16.9352 7.95455 17.6531 8.12917C18.3322 8.29438 18.7088 8.4924 19.2538 8.93039C19.4101 9.05593 19.5648 9.22015 19.7098 9.39717C20.2423 10.0475 21.1239 10.3824 21.8946 10.0469C22.0965 9.95906 22.3144 9.91371 22.5346 9.91371H23.1567C23.8589 9.91371 24.5277 10.2135 24.9949 10.7378L25.471 11.2721C25.7471 11.582 25.8417 12.0134 25.7205 12.4103C25.5002 13.1322 26.0079 13.8738 26.7198 14.1247C27.1747 14.285 27.625 14.5217 27.8762 14.8667C28.4825 15.6993 28.535 16.5266 28.1672 17.4889C27.9558 18.042 27.3367 18.5438 26.8564 18.8664C26.4631 19.1306 25.992 19.237 25.5181 19.237Z" stroke="#BA8A59" stroke-width="1.2" stroke-linecap="round"/>
<path d="M13.9883 11.6416C13.9883 11.6416 14.3522 10.5497 14.8727 10.0809C15.4557 9.55564 16.7455 9.35254 16.7455 9.35254" stroke="#BA8A59" stroke-linecap="round"/>
<path d="M15.7578 17.3811V14.962M17.3185 12.543V12.543C16.4566 12.543 15.7578 13.2417 15.7578 14.1037V14.962M15.7578 14.962H17.3185" stroke="#BA8A59" stroke-linecap="round"/>
<path d="M18.3047 12.543H19.5012M20.6978 12.543H19.5012M19.5012 12.543V17.4852" stroke="#BA8A59" stroke-linecap="round"/>
<path d="M21.7383 17.485V15.2366M21.7383 15.2366V14.0355C21.7383 13.1461 22.4824 11.9649 23.1324 12.5719V12.5719C23.7707 13.1681 23.7707 14.6404 23.1324 15.2366C22.6862 15.6533 21.7383 15.2366 21.7383 15.2366Z" stroke="#BA8A59" stroke-linecap="round"/>
<path d="M26.3421 1H12.3636C11.1355 1 9.97534 1.56424 9.21705 2.5304L2.73729 10.7865C1.69511 12.1143 1.59869 13.9535 2.49628 15.3831L9.24217 26.127C9.97397 27.2925 11.2536 28 12.6298 28H26.0753C27.4289 28 28.6906 27.3154 29.4286 26.1807L36.4115 15.4427C37.3582 13.9869 37.2574 12.0865 36.1621 10.739L29.446 2.47692C28.6864 1.5425 27.5463 1 26.3421 1Z" stroke="#C68D53" stroke-width="2"/>
</svg>
