<svg width="38" height="28" viewBox="0 0 38 28" fill="none" xmlns="http://www.w3.org/2000/svg">
<path d="M12.0664 8.18889L14.2886 9.38547C14.4797 9.48837 14.6863 9.55948 14.9002 9.596L17.0496 9.96297C17.1608 9.98196 17.2734 9.9915 17.3862 9.9915H20.9446C21.4458 9.9915 21.852 10.3978 21.852 10.8989C21.852 11.0223 21.8269 11.1444 21.7781 11.2577L21.7249 11.3812C21.4679 11.9782 20.8677 12.3532 20.2186 12.3225L17.4485 12.1914C17.2945 12.1841 17.1419 12.159 16.9936 12.1166L15.4141 11.6654L13.6227 11.2411C13.1978 11.1404 12.8174 10.9035 12.5398 10.5663L12.5225 10.5454C12.2277 10.1873 12.0664 9.73785 12.0664 9.27397V8.18889L12.5911 7.55179C12.8369 7.2533 13.164 7.03247 13.5327 6.91603L15.2274 6.38087C15.3516 6.34165 15.4793 6.31465 15.6088 6.30027L18.3112 6H20.3538C20.4512 6 20.5484 6.00711 20.6448 6.02128L22.689 6.3219L24.7012 6.81136C24.9455 6.87079 25.1765 6.97576 25.3819 7.12076L26.1654 7.67386C26.3598 7.75162 26.4873 7.93992 26.4873 8.14931V9.43505C26.4873 10.1029 26.1477 10.7248 25.586 11.0859L24.3588 11.7932C24.1221 11.9296 23.86 12.0161 23.5886 12.0473L22.8157 12.1362C22.5712 12.1643 22.3263 12.0869 22.1423 11.9234C21.9577 11.7593 21.852 11.524 21.852 11.277V11.0324C21.852 10.6932 21.9743 10.3655 22.1964 10.1092L22.2283 10.0723C22.5209 9.73478 22.9456 9.54085 23.3923 9.54085H23.6516C23.9503 9.54085 24.2451 9.47397 24.5145 9.34512L25.3196 8.96008C25.4955 8.87597 25.6531 8.75811 25.7835 8.6132L25.8209 8.57171C26.0427 8.32526 26.1654 8.00542 26.1654 7.67386L25.3819 7.12076C25.1765 6.97576 24.9455 6.87079 24.7012 6.81136L22.689 6.3219L20.6448 6.02128C20.5484 6.00711 20.4512 6 20.3538 6H18.3112L15.6088 6.30027C15.4793 6.31465 15.3516 6.34165 15.2274 6.38087L13.5327 6.91603C13.164 7.03247 12.8369 7.2533 12.5911 7.55179L12.0664 8.18889Z" fill="#C68D53"/>
<path d="M12.0664 8.18889L14.2886 9.38547C14.4797 9.48837 14.6863 9.55948 14.9002 9.596L17.0496 9.96297C17.1608 9.98196 17.2734 9.9915 17.3862 9.9915H20.9446C21.4458 9.9915 21.852 10.3978 21.852 10.8989V10.8989C21.852 11.0223 21.8269 11.1444 21.7781 11.2577L21.7249 11.3812C21.4679 11.9782 20.8677 12.3532 20.2186 12.3225L17.4485 12.1914C17.2945 12.1841 17.1419 12.159 16.9936 12.1166L15.4141 11.6654L13.6227 11.2411C13.1978 11.1404 12.8174 10.9035 12.5398 10.5663L12.5225 10.5454C12.2277 10.1873 12.0664 9.73785 12.0664 9.27397V8.18889ZM12.0664 8.18889L12.5911 7.55179C12.8369 7.2533 13.164 7.03247 13.5327 6.91603L15.2274 6.38087C15.3516 6.34165 15.4793 6.31465 15.6088 6.30027L18.3112 6H20.3538C20.4512 6 20.5484 6.00711 20.6448 6.02128L22.689 6.3219L24.7012 6.81136C24.9455 6.87079 25.1765 6.97576 25.3819 7.12076L26.1654 7.67386M26.1654 7.67386V7.67386C26.1654 8.00542 26.0427 8.32526 25.8209 8.57171L25.7835 8.6132C25.6531 8.75811 25.4955 8.87597 25.3196 8.96008L24.5145 9.34512C24.2451 9.47397 23.9503 9.54085 23.6516 9.54085H23.3923C22.9456 9.54085 22.5209 9.73478 22.2283 10.0723L22.1964 10.1092C21.9743 10.3655 21.852 10.6932 21.852 11.0324V11.277C21.852 11.524 21.9577 11.7593 22.1423 11.9234V11.9234C22.3263 12.0869 22.5712 12.1643 22.8157 12.1362L23.5886 12.0473C23.86 12.0161 24.1221 11.9296 24.3588 11.7932L25.586 11.0859V11.0859C26.1477 10.7248 26.4873 10.1029 26.4873 9.43505V8.14931C26.4873 7.93992 26.3598 7.75162 26.1654 7.67386V7.67386Z" stroke="#C68D53" stroke-linecap="round"/>
<path d="M12.2942 12.6511L12.8369 12.9526L13.4807 13.2745L14.0747 13.5715C14.1921 13.6302 14.3216 13.6607 14.4529 13.6607C14.6945 13.6607 14.9245 13.764 15.085 13.9446L15.3477 14.2402L15.9797 14.0596C16.1584 14.0085 16.3433 13.9826 16.5291 13.9826H20.0474H21.1418H22.0526C22.1748 13.9826 22.2967 13.9714 22.4168 13.9492L23.8013 13.6928C23.9166 13.6715 24.0297 13.6401 24.1394 13.5989L25.0046 13.2745L25.4588 13.0473C25.5848 12.9843 25.7038 12.9082 25.8138 12.8202L26.2759 12.4506C26.2867 12.4419 26.2961 12.4317 26.3037 12.4202C26.3774 12.3097 26.5497 12.3618 26.5497 12.4947V14.7279C26.5497 14.831 26.53 14.9331 26.4917 15.0289L26.4604 15.1071C26.3517 15.3789 26.151 15.6038 25.8933 15.7425L25.6389 15.8795C25.5168 15.9452 25.3881 15.9981 25.2551 16.0373L24.3608 16.3003L23.0732 16.4934L21.4807 16.7293C21.3837 16.7437 21.2857 16.7509 21.1876 16.7509H20.0474H19.0817L17.0098 16.4824C16.2065 16.3782 15.6052 15.694 15.6052 14.8839V15.2804C15.6052 15.4417 15.5575 15.5993 15.468 15.7335C15.3892 15.8518 15.2808 15.9475 15.1537 16.011L14.8666 16.1546C14.6749 16.2504 14.4636 16.3003 14.2493 16.3003C13.9991 16.3003 13.7537 16.2323 13.5392 16.1036L13.4038 16.0224C13.2838 15.9504 13.1562 15.8917 13.0233 15.8474L12.9058 15.8082C12.733 15.7506 12.5739 15.658 12.4385 15.5361L12.1983 15.32C12.0721 15.2063 12 15.0445 12 14.8746V12.6433C12 12.5076 12.1853 12.4683 12.2405 12.5923C12.2515 12.6172 12.2704 12.6378 12.2942 12.6511Z" fill="#C68D53"/>
<path d="M12.2796 17.1519L12.5423 17.3271C12.7366 17.4566 12.9555 17.545 13.1853 17.5868L13.5451 17.6522L14.2533 17.8454L14.6162 17.9705C14.8695 18.0579 15.1378 18.0935 15.4051 18.0751L16.1594 18.0234C16.3848 18.0079 16.6113 18.0307 16.8291 18.0909L18.0477 18.4277C18.2212 18.4757 18.4004 18.5 18.5804 18.5H19.4908C19.4969 18.5 19.503 18.5005 19.5091 18.5014L20.6783 18.677C20.7211 18.6835 20.7164 18.7467 20.6731 18.7467C20.6393 18.7467 20.6251 18.7898 20.6522 18.8099L21.7856 19.648L21.8878 18.9325C21.9054 18.8094 21.9427 18.69 21.9983 18.5788C22.1494 18.2767 22.4248 18.0558 22.7524 17.9739L23.2663 17.8454L24.3608 17.6522L24.6649 17.5914C24.8897 17.5465 25.1051 17.4632 25.3016 17.3453L25.6484 17.1372L26.1525 16.8348C26.2391 16.7828 26.2922 16.6891 26.2922 16.588V16.429C26.2922 16.3579 26.3498 16.3003 26.4209 16.3003C26.492 16.3003 26.5497 16.3579 26.5497 16.429V18.9357C26.5497 19.1072 26.5049 19.2756 26.4199 19.4245C26.3361 19.571 26.2161 19.6936 26.0714 19.7804L25.8568 19.9092C25.7184 19.9923 25.5701 20.0577 25.4155 20.1041L25.0046 20.2274L24.6151 20.4005C24.4888 20.4566 24.357 20.4995 24.2219 20.5285L23.8938 20.5988C23.6496 20.6511 23.3974 20.6544 23.152 20.6083C22.7262 20.5285 22.341 20.3044 22.0612 19.9737L21.7856 19.648C21.856 20.2109 21.4455 20.7199 20.8804 20.7704L18.3091 21H17.7297H16.4734C16.3243 21 16.1756 20.9833 16.0302 20.9502L14.8327 20.6781L13.5451 20.2274L12.5181 19.7652C12.3487 19.689 12.2079 19.5612 12.1158 19.3999L12.0903 19.3554C12.0311 19.2518 12 19.1346 12 19.0153V17.1887C12 17.0575 12.1701 17.0061 12.2428 17.1152C12.2525 17.1297 12.265 17.1422 12.2796 17.1519Z" fill="#C68D53"/>
<path d="M15.3477 14.2402L15.085 13.9446C14.9245 13.764 14.6945 13.6607 14.4529 13.6607V13.6607C14.3216 13.6607 14.1921 13.6302 14.0747 13.5715L13.4807 13.2745L12.8369 12.9526L12.2942 12.6511C12.2704 12.6378 12.2515 12.6172 12.2405 12.5923V12.5923C12.1853 12.4683 12 12.5076 12 12.6433V14.8746C12 15.0445 12.0721 15.2063 12.1983 15.32L12.4385 15.5361C12.5739 15.658 12.733 15.7506 12.9058 15.8082L13.0233 15.8474C13.1562 15.8917 13.2838 15.9504 13.4038 16.0224L13.5392 16.1036C13.7537 16.2323 13.9991 16.3003 14.2493 16.3003V16.3003C14.4636 16.3003 14.6749 16.2504 14.8666 16.1546L15.1537 16.011C15.2808 15.9475 15.3892 15.8518 15.468 15.7335V15.7335C15.5575 15.5993 15.6052 15.4417 15.6052 15.2804V14.8839M15.3477 14.2402L15.6052 14.8839M15.3477 14.2402L15.9797 14.0596C16.1584 14.0085 16.3433 13.9826 16.5291 13.9826H20.0474H21.1418H22.0526C22.1748 13.9826 22.2967 13.9714 22.4168 13.9492L23.8013 13.6928C23.9166 13.6715 24.0297 13.6401 24.1394 13.5989L25.0046 13.2745L25.4589 13.0473C25.5848 12.9843 25.7038 12.9082 25.8138 12.8202L26.2759 12.4506C26.2867 12.4419 26.2961 12.4317 26.3037 12.4202V12.4202C26.3774 12.3097 26.5497 12.3618 26.5497 12.4947V14.7279C26.5497 14.831 26.53 14.9331 26.4917 15.0289L26.4604 15.1071C26.3517 15.3789 26.151 15.6038 25.8933 15.7425L25.6389 15.8795C25.5168 15.9452 25.3881 15.9981 25.2551 16.0373L24.3608 16.3003L23.0732 16.4934L21.4807 16.7293C21.3837 16.7437 21.2857 16.7509 21.1876 16.7509H20.0474H19.0817L17.0098 16.4824C16.2065 16.3782 15.6052 15.694 15.6052 14.8839V14.8839M21.7856 19.648L20.6522 18.8099C20.6251 18.7898 20.6393 18.7467 20.6731 18.7467V18.7467C20.7164 18.7467 20.7211 18.6835 20.6783 18.677L19.5091 18.5014C19.503 18.5005 19.4969 18.5 19.4908 18.5H18.5804C18.4004 18.5 18.2212 18.4757 18.0477 18.4277L16.8291 18.0909C16.6113 18.0307 16.3848 18.0079 16.1594 18.0234L15.4051 18.0751C15.1378 18.0935 14.8695 18.0579 14.6162 17.9705L14.2533 17.8454L13.5451 17.6522L13.1853 17.5868C12.9555 17.545 12.7366 17.4566 12.5423 17.3271L12.2796 17.1519C12.265 17.1422 12.2525 17.1297 12.2428 17.1152V17.1152C12.1701 17.0061 12 17.0575 12 17.1887V19.0153C12 19.1346 12.0311 19.2518 12.0903 19.3554L12.1158 19.3999C12.2079 19.5612 12.3487 19.689 12.5181 19.7652L13.5451 20.2274L14.8327 20.6781L16.0302 20.9502C16.1756 20.9833 16.3243 21 16.4734 21H17.7297H18.3091L20.8804 20.7704C21.4455 20.7199 21.856 20.2109 21.7856 19.648V19.648ZM21.7856 19.648L22.0612 19.9737C22.341 20.3044 22.7262 20.5285 23.152 20.6083V20.6083C23.3974 20.6544 23.6496 20.6511 23.8938 20.5988L24.2219 20.5285C24.357 20.4995 24.4888 20.4566 24.6151 20.4005L25.0046 20.2274L25.4155 20.1041C25.5701 20.0577 25.7184 19.9923 25.8568 19.9092L26.0714 19.7804C26.2161 19.6936 26.3361 19.571 26.4199 19.4245V19.4245C26.5049 19.2756 26.5497 19.1072 26.5497 18.9357V16.429C26.5497 16.3579 26.492 16.3003 26.4209 16.3003V16.3003C26.3498 16.3003 26.2922 16.3579 26.2922 16.429V16.588C26.2922 16.6891 26.2391 16.7828 26.1525 16.8348L25.6484 17.1372L25.3016 17.3453C25.1051 17.4632 24.8897 17.5465 24.6649 17.5914L24.3608 17.6522L23.2663 17.8454L22.7524 17.9739C22.4248 18.0558 22.1494 18.2767 21.9983 18.5788V18.5788C21.9427 18.69 21.9054 18.8094 21.8878 18.9325L21.7856 19.648Z" stroke="#C68D53" stroke-linecap="round"/>
<circle cx="25.9112" cy="19.0001" r="3.59091" fill="white" stroke="#C68D53"/>
<path d="M22.5039 18.3179C24.8903 20.0224 26.2539 15.9317 29.3221 18.3179" stroke="#C68D53" stroke-linecap="round"/>
<path d="M22.5039 19.6817C24.8903 21.3862 26.2539 17.2954 29.3221 19.6817" stroke="#C68D53" stroke-linecap="round"/>
<path d="M26.3932 1H12.3125C11.1135 1 9.97764 1.53791 9.21791 2.46558L2.85996 10.2289C1.75304 11.5805 1.65133 13.4941 2.60875 14.9554L9.2337 25.0671C9.97285 26.1953 11.2308 26.875 12.5795 26.875H26.1258C27.4516 26.875 28.6912 26.2181 29.4357 25.121L36.2932 15.0153C37.3019 13.5287 37.1958 11.5519 36.0337 10.1819L29.4436 2.41256C28.6836 1.51655 27.5681 1 26.3932 1Z" stroke="#C68D53" stroke-width="2"/>
</svg>
