<svg width="35" height="35" viewBox="0 0 35 35" fill="none" xmlns="http://www.w3.org/2000/svg">
<path fill-rule="evenodd" clip-rule="evenodd" d="M1.82227 17.5002C1.82227 12.869 5.57655 9.11475 10.2077 9.11475C13.3877 9.11475 16.1522 10.8847 17.5734 13.4897H30.6244C32.0338 13.4897 33.1764 14.6324 33.1764 16.0418V19.6877C33.1764 20.2917 32.6867 20.7814 32.0827 20.7814H28.8014V23.3335C28.8014 23.9376 28.3117 24.4272 27.7077 24.4272H24.0619C23.4578 24.4272 22.9681 23.9376 22.9681 23.3335V20.7814H17.9265C16.6497 23.781 13.6757 25.8856 10.2077 25.8856C5.57655 25.8856 1.82227 22.1313 1.82227 17.5002ZM10.2077 14.5835C8.59685 14.5835 7.29102 15.8893 7.29102 17.5002C7.29102 19.111 8.59685 20.4168 10.2077 20.4168C11.8185 20.4168 13.1244 19.111 13.1244 17.5002C13.1244 15.8893 11.8185 14.5835 10.2077 14.5835Z" fill="#C68D53"/>
</svg>
