<svg width="35" height="35" viewBox="0 0 35 35" fill="none" xmlns="http://www.w3.org/2000/svg">
<path d="M17.4993 5.46875C14.479 5.46875 12.0306 7.91719 12.0306 10.9375C12.0306 13.9578 14.479 16.4062 17.4993 16.4062C20.5197 16.4062 22.9681 13.9578 22.9681 10.9375C22.9681 7.91719 20.5197 5.46875 17.4993 5.46875Z" fill="#C68D53"/>
<path d="M11.666 19.3229C8.64571 19.3229 6.19727 21.7714 6.19727 24.7917V26.5246C6.19727 27.623 6.99335 28.5596 8.07745 28.7366C14.3174 29.7554 20.6813 29.7554 26.9212 28.7366C28.0054 28.5596 28.8014 27.623 28.8014 26.5246V24.7917C28.8014 21.7714 26.353 19.3229 23.3327 19.3229H22.8356C22.5665 19.3229 22.2992 19.3655 22.0434 19.449L20.7812 19.8611C18.6487 20.5575 16.35 20.5575 14.2175 19.8611L12.9553 19.449C12.6995 19.3655 12.4322 19.3229 12.1631 19.3229H11.666Z" fill="#C68D53"/>
</svg>
