<svg width="551" height="429" viewBox="0 0 551 429" fill="none" xmlns="http://www.w3.org/2000/svg">
<g clip-path="url(#clip0_1242_2495)">
<path d="M496.894 417.516L487.643 417.515L483.242 381.883L496.896 381.884L496.894 417.516Z" fill="#FFB6B6"/>
<path d="M497.219 427.153L468.771 427.152V426.793C468.772 420.687 473.729 415.736 479.844 415.736H479.845L485.041 411.799L494.737 415.737L497.22 415.737L497.219 427.153Z" fill="#2F2E41"/>
<path d="M455.882 417.516L446.631 417.515L442.23 381.883L455.884 381.884L455.882 417.516Z" fill="#FFB6B6"/>
<path d="M456.208 427.153L427.76 427.152V426.793C427.76 420.687 432.717 415.736 438.833 415.736H438.833L444.03 411.799L453.725 415.737L456.208 415.737L456.208 427.153Z" fill="#2F2E41"/>
<path d="M451.473 218.659L504.846 219.781C504.846 219.781 514.441 235.49 507.115 257.651L507.936 263.822L504.565 273.36L502.88 302.533L504.565 307.021L503.442 315.437C503.442 315.437 507.936 370.979 496.7 399.03L483.216 398.469L478.16 325.281L480.969 319.925L480.407 317.681L473.665 284.019L466.923 301.411V311.074L460.743 318.242C460.743 318.242 462.991 384.443 456.811 397.908H441.715L436.023 308.143L441.642 255.968L440.518 252.601L442.203 250.918L441.08 245.308L451.473 218.659L451.473 218.659Z" fill="#2F2E41"/>
<path d="M474.226 116.271L490.519 112.344L495.013 123.004C495.013 123.004 518.267 135.346 519.391 152.177C519.391 152.177 522.542 165.642 519.733 171.813C516.924 177.985 505.126 197.621 505.126 197.621C505.126 197.621 515.801 231.844 512.992 233.527C510.182 235.21 443.326 231.844 443.326 228.477C443.326 225.111 454.453 189.766 454.453 189.766L456.81 129.175L471.979 123.565L474.226 116.271L474.226 116.271V116.271Z" fill="#3F3D56"/>
<path d="M517.663 254.377C514.253 252.661 512.881 248.51 514.599 245.105C514.772 244.762 514.976 244.446 515.195 244.145L506.129 182.075L518.68 182.476L525.246 242.954C527.626 244.969 528.415 248.413 526.948 251.318C525.23 254.724 521.073 256.093 517.663 254.377H517.663Z" fill="#FFB6B6"/>
<path d="M398.568 225.082C397.195 221.523 398.97 217.528 402.533 216.156C402.892 216.018 403.256 215.921 403.62 215.845L438.643 163.772L447.673 172.486L411.869 221.702C412.277 224.792 410.546 227.872 407.505 229.042C403.942 230.413 399.941 228.64 398.568 225.082V225.082Z" fill="#FFB6B6"/>
<path d="M494.791 166.419C491.245 154.252 497.135 141.84 509.824 141.9C513.491 141.917 516.341 142.98 517.13 145.921C519.894 156.217 521.401 171.759 521.401 171.759L524.68 188.307L522.694 191.743L526.834 202.832L524.826 208.078L524.392 234.869L514.279 234.308L503.137 213.884L498.876 211.354C498.876 211.354 502.297 178.332 495.492 168.824L494.791 166.419H494.791V166.419Z" fill="#3F3D56"/>
<path d="M449.493 136.477C455.406 125.266 470.545 122.61 479.63 131.456C482.256 134.013 483.566 136.754 482.087 139.418C476.912 148.741 464.917 158.779 464.917 158.779L450.145 182.494L446.326 183.587L441.59 194.436L431.439 206.354L417.994 213.434L410.129 205.58L411.799 195.483L432.04 168.552C432.04 168.552 446.603 150.254 448.323 138.694L449.493 136.477V136.477V136.477Z" fill="#3F3D56"/>
<path d="M477.323 112.992C477.695 113.037 478.066 113.07 478.435 113.087C479.583 113.15 480.717 113.085 481.811 112.9C485.132 112.368 488.15 110.797 490.479 108.493C492.94 106.062 494.625 102.817 495.081 99.1228C496.148 90.4032 489.93 82.4602 481.198 81.3948C472.591 80.3385 464.746 86.3497 463.494 94.8691C463.474 95.001 463.454 95.1273 463.439 95.2586C462.373 103.984 468.585 111.922 477.323 112.992V112.992V112.992Z" fill="#FFB6B6"/>
<path d="M459.903 94.2855C462.165 95.4025 465.861 91.8909 467.277 93.9113C467.507 93.4747 467.761 93.0524 468.011 92.6531C468.238 92.2958 468.563 91.533 468.939 91.4024C468.463 92.5481 468.568 94.0998 469.062 95.4293C471.293 96.2618 474.214 94.419 476.279 92.2393C479.521 88.8214 484.816 97.5857 483.564 102.121C485.158 100.179 488.615 101.274 489.787 103.496C490.958 105.712 488.979 107.487 488.556 109.959L491.75 109.554C493.765 107.594 493.624 104.291 495.284 102.02C498.056 98.2179 499.13 94.3389 497.046 90.4153C495.198 86.9461 495.025 82.4562 491.634 80.4561C493.115 79.7327 487.847 80.8628 489.254 78.5054C490.668 76.153 483.133 75.8674 482.641 77.1277C480.488 74.5545 478.317 72.858 475.668 74.9199C473.067 76.9484 473.336 79.0806 470.281 78.8895C468.848 78.8009 469.005 81.4699 468.153 82.6335C467.306 83.7909 464.012 84.5339 463.852 84.4101C462.982 83.7304 460.023 89.516 460.023 89.516C460.023 89.516 457.623 93.1536 459.903 94.2855H459.903Z" fill="#2F2E41"/>
<path d="M260.546 195.265C314.067 195.265 357.454 238.592 357.454 292.038C357.454 345.484 314.067 388.811 260.546 388.811C207.024 388.811 132.953 335.821 163.637 292.038C194.321 248.255 207.024 195.265 260.546 195.265Z" fill="#F2F2F2"/>
<path d="M390.252 199.869C389.382 199.869 388.676 200.574 388.676 201.442V251.795C388.676 252.663 389.382 253.369 390.252 253.369C391.121 253.369 391.827 252.663 391.827 251.795V201.442C391.827 200.574 391.121 199.869 390.252 199.869Z" fill="#3F3D56"/>
<path d="M125.525 162.104C124.656 162.104 123.949 162.81 123.949 163.678V176.266C123.949 177.134 124.656 177.839 125.525 177.839C126.394 177.839 127.101 177.134 127.101 176.266V163.678C127.101 162.81 126.394 162.104 125.525 162.104Z" fill="#3F3D56"/>
<path d="M125.525 199.869C124.656 199.869 123.949 200.574 123.949 201.442V225.832C123.949 226.7 124.656 227.406 125.525 227.406C126.394 227.406 127.101 226.7 127.101 225.832V201.442C127.101 200.574 126.394 199.869 125.525 199.869Z" fill="#3F3D56"/>
<path d="M125.525 234.487C124.656 234.487 123.949 235.193 123.949 236.06V260.45C123.949 261.318 124.656 262.024 125.525 262.024C126.394 262.024 127.101 261.318 127.101 260.45V236.06C127.101 235.193 126.394 234.487 125.525 234.487Z" fill="#3F3D56"/>
<path d="M266.849 112.537C265.98 112.537 265.273 113.243 265.273 114.111V138.501C265.273 139.368 265.98 140.074 266.849 140.074C267.718 140.074 268.425 139.368 268.425 138.501V114.111C268.425 113.243 267.718 112.537 266.849 112.537Z" fill="#3F3D56"/>
<path d="M508.251 414.363C509.879 414.465 510.779 412.445 509.547 411.268L509.425 410.782C509.441 410.743 509.457 410.704 509.473 410.665C511.119 406.746 516.698 406.773 518.33 410.698C519.779 414.182 521.623 417.672 522.077 421.356C522.281 422.982 522.189 424.638 521.828 426.234C525.222 418.83 527.008 410.745 527.008 402.615C527.008 400.572 526.896 398.529 526.667 396.491C526.479 394.824 526.219 393.168 525.884 391.526C524.067 382.654 520.133 374.203 514.459 367.145C511.732 365.656 509.457 363.328 508.083 360.539C507.589 359.532 507.203 358.45 507.02 357.347C507.33 357.388 508.19 352.667 507.956 352.377C508.388 351.722 509.163 351.396 509.635 350.756C511.985 347.575 515.222 348.131 516.912 352.454C520.522 354.273 520.557 357.291 518.342 360.193C516.933 362.039 516.739 364.538 515.503 366.515C515.63 366.677 515.762 366.835 515.889 366.997C518.222 369.985 520.24 373.197 521.941 376.571C521.46 372.821 522.17 368.304 523.38 365.392C524.757 362.073 527.339 359.279 529.612 356.411C532.343 352.965 537.943 354.469 538.424 358.836C538.429 358.879 538.433 358.921 538.438 358.963C538.1 359.153 537.769 359.356 537.446 359.569C535.603 360.786 536.24 363.64 538.424 363.976L538.473 363.984C538.351 365.198 538.143 366.403 537.837 367.587C540.754 378.85 534.457 382.952 525.466 383.137C525.268 383.238 525.075 383.34 524.876 383.436C525.787 385.998 526.515 388.625 527.054 391.288C527.538 393.64 527.873 396.019 528.062 398.407C528.296 401.42 528.275 404.449 528.021 407.457L528.036 407.351C528.683 404.037 530.484 400.943 533.1 398.798C536.996 395.602 542.501 394.425 546.705 391.856C548.728 390.619 551.321 392.217 550.968 394.56L550.951 394.672C550.325 394.926 549.714 395.221 549.124 395.551C548.786 395.741 548.456 395.943 548.132 396.157C546.289 397.374 546.926 400.228 549.11 400.564L549.16 400.572C549.195 400.577 549.226 400.582 549.261 400.587C548.188 403.133 546.692 405.496 544.819 407.534C542.995 417.366 535.163 418.299 526.784 415.436H526.779C525.863 419.42 524.525 423.312 522.805 427.022H508.607C508.556 426.864 508.511 426.702 508.465 426.544C509.778 426.625 511.101 426.549 512.393 426.31C511.34 425.02 510.287 423.719 509.233 422.428C509.208 422.402 509.187 422.377 509.167 422.352C508.633 421.691 508.093 421.036 507.559 420.375L507.559 420.374C507.525 418.346 507.769 416.325 508.251 414.363L508.252 414.363L508.251 414.363H508.251Z" fill="#F2F2F2"/>
<path d="M106 427.064C106 427.583 106.418 428 106.938 428H549.952C550.472 428 550.889 427.583 550.889 427.064C550.889 426.544 550.472 426.127 549.952 426.127H106.938C106.418 426.127 106 426.544 106 427.064Z" fill="#CCCCCC"/>
<path d="M218.174 285.515H163.637V283.941H218.174C222.912 283.941 226.766 280.092 226.766 275.361V238.538H228.342V275.361C228.342 280.959 223.781 285.515 218.174 285.515H218.174Z" fill="#DAB998"/>
<path d="M322.237 365.336H198.197V366.91H322.237V365.336Z" fill="#DAB998"/>
<path d="M400.935 274.993H334.681C331.106 274.993 328.197 272.088 328.197 268.518V203.164C328.197 199.594 331.106 196.689 334.681 196.689H400.935C404.511 196.689 407.42 199.594 407.42 203.164V268.518C407.42 272.088 404.511 274.993 400.935 274.993Z" fill="#E6E6E6"/>
<path d="M347.02 198.618C337.691 198.618 330.129 206.17 330.129 215.485V267.131C330.129 270.408 332.789 273.064 336.07 273.064H376.582C392.546 273.064 405.487 260.141 405.487 244.199V204.551C405.487 201.274 402.827 198.618 399.546 198.618H347.02V198.618Z" fill="white"/>
<path d="M385.554 217.61H349.926C349.246 217.61 348.693 217.058 348.693 216.379C348.693 215.701 349.246 215.148 349.926 215.148H385.554C386.234 215.148 386.787 215.7 386.787 216.379C386.787 217.058 386.234 217.61 385.554 217.61Z" fill="#E6E6E6"/>
<path d="M385.554 243.86H349.926C349.246 243.86 348.693 243.308 348.693 242.629C348.693 241.95 349.246 241.398 349.926 241.398H385.554C386.234 241.398 386.787 241.95 386.787 242.629C386.787 243.308 386.234 243.86 385.554 243.86Z" fill="#E6E6E6"/>
<path d="M400.021 230.744H335.457C334.778 230.744 334.225 230.191 334.225 229.513C334.225 228.834 334.778 228.282 335.457 228.282H400.021C400.701 228.282 401.254 228.834 401.254 229.513C401.254 230.191 400.701 230.744 400.021 230.744Z" fill="#E6E6E6"/>
<path d="M400.68 254.533H377.356C376.676 254.533 376.123 253.98 376.123 253.302C376.123 252.623 376.676 252.071 377.356 252.071H400.68C401.36 252.071 401.912 252.623 401.912 253.302C401.912 253.98 401.36 254.533 400.68 254.533Z" fill="#E6E6E6"/>
<path d="M261.773 405.207H209.163C206.323 405.207 204.014 402.9 204.014 400.065V348.17C204.014 345.335 206.323 343.028 209.163 343.028H261.773C264.612 343.028 266.921 345.335 266.921 348.17V400.065C266.921 402.9 264.612 405.207 261.773 405.207H261.773Z" fill="#E6E6E6"/>
<path d="M218.959 344.56C211.552 344.56 205.547 350.557 205.547 357.954V398.964C205.547 401.566 207.659 403.675 210.264 403.675H242.434C255.11 403.675 265.386 393.413 265.386 380.754V349.271C265.386 346.669 263.274 344.56 260.669 344.56H218.959L218.959 344.56H218.959Z" fill="white"/>
<path d="M249.557 359.641H221.266C220.726 359.641 220.287 359.203 220.287 358.664C220.287 358.125 220.726 357.687 221.266 357.687H249.557C250.097 357.687 250.536 358.125 250.536 358.664C250.536 359.203 250.097 359.641 249.557 359.641Z" fill="#E6E6E6"/>
<path d="M249.557 380.485H221.266C220.726 380.485 220.287 380.047 220.287 379.508C220.287 378.969 220.726 378.53 221.266 378.53H249.557C250.097 378.53 250.536 378.969 250.536 379.508C250.536 380.047 250.097 380.485 249.557 380.485Z" fill="#E6E6E6"/>
<path d="M261.046 370.07H209.778C209.238 370.07 208.799 369.632 208.799 369.093C208.799 368.554 209.238 368.115 209.778 368.115H261.046C261.586 368.115 262.025 368.554 262.025 369.093C262.025 369.632 261.586 370.07 261.046 370.07Z" fill="#E6E6E6"/>
<path d="M261.57 388.96H243.049C242.509 388.96 242.07 388.522 242.07 387.983C242.07 387.444 242.509 387.005 243.049 387.005H261.57C262.11 387.005 262.549 387.444 262.549 387.983C262.549 388.522 262.11 388.96 261.57 388.96Z" fill="#E6E6E6"/>
<path d="M225 238.141H186.093C183.993 238.141 182.285 236.435 182.285 234.338V195.959C182.285 193.862 183.993 192.157 186.093 192.157H225C227.1 192.157 228.808 193.862 228.808 195.959V234.338C228.808 236.435 227.1 238.141 225 238.141Z" fill="#E6E6E6"/>
<path d="M193.339 193.29C187.861 193.29 183.42 197.724 183.42 203.195V233.524C183.42 235.448 184.982 237.008 186.909 237.008H210.699C220.074 237.008 227.674 229.418 227.674 220.057V196.773C227.674 194.849 226.112 193.29 224.185 193.29H193.339V193.29L193.339 193.29Z" fill="white"/>
<path d="M215.967 204.443H195.044C194.645 204.443 194.32 204.118 194.32 203.72C194.32 203.321 194.645 202.997 195.044 202.997H215.967C216.366 202.997 216.691 203.321 216.691 203.72C216.691 204.118 216.366 204.443 215.967 204.443Z" fill="#E6E6E6"/>
<path d="M215.967 219.858H195.044C194.645 219.858 194.32 219.533 194.32 219.135C194.32 218.736 194.645 218.412 195.044 218.412H215.967C216.366 218.412 216.691 218.736 216.691 219.135C216.691 219.533 216.366 219.858 215.967 219.858Z" fill="#E6E6E6"/>
<path d="M224.463 212.155H186.548C186.149 212.155 185.824 211.831 185.824 211.432C185.824 211.034 186.149 210.709 186.548 210.709H224.463C224.862 210.709 225.187 211.034 225.187 211.432C225.187 211.831 224.862 212.155 224.463 212.155Z" fill="#E6E6E6"/>
<path d="M224.851 226.125H211.154C210.754 226.125 210.43 225.801 210.43 225.402C210.43 225.004 210.754 224.68 211.154 224.68H224.851C225.25 224.68 225.574 225.004 225.574 225.402C225.574 225.801 225.25 226.125 224.851 226.125Z" fill="#E6E6E6"/>
<path d="M338.545 286.53C342.896 286.53 346.424 283.008 346.424 278.663C346.424 274.317 342.896 270.795 338.545 270.795C334.193 270.795 330.666 274.317 330.666 278.663C330.666 283.008 334.193 286.53 338.545 286.53Z" fill="#DAB998"/>
<path d="M227.455 246.405C231.806 246.405 235.334 242.883 235.334 238.538C235.334 234.192 231.806 230.67 227.455 230.67C223.104 230.67 219.576 234.192 219.576 238.538C219.576 242.883 223.104 246.405 227.455 246.405Z" fill="#DAB998"/>
<path d="M265.273 354.193C269.625 354.193 273.152 350.67 273.152 346.325C273.152 341.98 269.625 338.458 265.273 338.458C260.922 338.458 257.395 341.98 257.395 346.325C257.395 350.67 260.922 354.193 265.273 354.193Z" fill="#DAB998"/>
<path d="M282.292 136.039C287.715 136.039 292.112 131.741 292.112 126.44C292.112 121.139 287.715 116.841 282.292 116.841C276.869 116.841 272.473 121.139 272.473 126.44C272.473 131.741 276.869 136.039 282.292 136.039Z" fill="#F2F2F2"/>
<path d="M361.01 123.156H308.156C306.342 123.156 304.867 121.683 304.867 119.872C304.867 118.062 306.342 116.588 308.156 116.588H361.01C362.824 116.588 364.299 118.062 364.299 119.872C364.299 121.683 362.824 123.156 361.01 123.156Z" fill="#F2F2F2"/>
<path d="M402.258 134.271H308.156C306.342 134.271 304.867 132.798 304.867 130.987C304.867 129.176 306.342 127.703 308.156 127.703H402.258C404.071 127.703 405.547 129.176 405.547 130.987C405.547 132.798 404.071 134.271 402.258 134.271Z" fill="#F2F2F2"/>
<path d="M140.162 176.383C143.671 176.383 146.517 173.601 146.517 170.17C146.517 166.739 143.671 163.958 140.162 163.958C136.652 163.958 133.807 166.739 133.807 170.17C133.807 173.601 136.652 176.383 140.162 176.383Z" fill="#F2F2F2"/>
<path d="M191.106 168.045H156.9C155.726 168.045 154.771 167.092 154.771 165.92C154.771 164.748 155.726 163.794 156.9 163.794H191.106C192.28 163.794 193.235 164.748 193.235 165.92C193.235 167.092 192.28 168.045 191.106 168.045H191.106Z" fill="#F2F2F2"/>
<path d="M217.801 175.238H156.9C155.726 175.238 154.771 174.285 154.771 173.113C154.771 171.941 155.726 170.988 156.9 170.988H217.801C218.975 170.988 219.93 171.941 219.93 173.113C219.93 174.285 218.975 175.238 217.801 175.238Z" fill="#F2F2F2"/>
<path d="M330.828 397.465C334.337 397.465 337.183 394.684 337.183 391.253C337.183 387.822 334.337 385.041 330.828 385.041C327.318 385.041 324.473 387.822 324.473 391.253C324.473 394.684 327.318 397.465 330.828 397.465Z" fill="#F2F2F2"/>
<path d="M381.772 389.128H347.566C346.392 389.128 345.438 388.174 345.438 387.002C345.438 385.83 346.392 384.877 347.566 384.877H381.772C382.946 384.877 383.901 385.83 383.901 387.002C383.901 388.174 382.946 389.128 381.772 389.128Z" fill="#F2F2F2"/>
<path d="M408.468 396.321H347.566C346.392 396.321 345.438 395.367 345.438 394.196C345.438 393.024 346.392 392.07 347.566 392.07H408.468C409.641 392.07 410.596 393.024 410.596 394.196C410.596 395.367 409.641 396.321 408.468 396.321Z" fill="#F2F2F2"/>
<path d="M254.439 196.713H252.863V271.456H254.439V196.713Z" fill="#E6E6E6"/>
<path d="M253.651 276.177C256.262 276.177 258.378 274.063 258.378 271.456C258.378 268.849 256.262 266.735 253.651 266.735C251.04 266.735 248.924 268.849 248.924 271.456C248.924 274.063 251.04 276.177 253.651 276.177Z" fill="#E6E6E6"/>
<path d="M325.348 330.464C327.959 330.464 330.076 328.35 330.076 325.743C330.076 323.136 327.959 321.022 325.348 321.022C322.738 321.022 320.621 323.136 320.621 325.743C320.621 328.35 322.738 330.464 325.348 330.464Z" fill="#E6E6E6"/>
<path d="M197.714 265.949C200.324 265.949 202.441 263.835 202.441 261.228C202.441 258.621 200.324 256.507 197.714 256.507C195.103 256.507 192.986 258.621 192.986 261.228C192.986 263.835 195.103 265.949 197.714 265.949Z" fill="#E6E6E6"/>
<path d="M195.966 261.235L170.113 262.017L170.161 263.59L196.013 262.809L195.966 261.235Z" fill="#E6E6E6"/>
<path d="M363.805 343.815H324.604V325.743H326.179V342.242H363.805V343.815Z" fill="#E6E6E6"/>
<path d="M195.772 317.494C198.383 317.494 200.499 315.38 200.499 312.773C200.499 310.166 198.383 308.053 195.772 308.053C193.161 308.053 191.045 310.166 191.045 312.773C191.045 315.38 193.161 317.494 195.772 317.494Z" fill="#E6E6E6"/>
<path d="M233.762 330.845H194.561V312.773H196.136V329.272H233.762V330.845Z" fill="#E6E6E6"/>
<path d="M353.712 294.811H165.424V296.385H353.712V294.811Z" fill="#E6E6E6"/>
</g>
<path d="M146.075 262.738C148.24 266.926 147.833 271.436 145.166 272.813C142.499 274.19 138.581 271.911 136.416 267.723C135.469 265.89 135.014 263.995 135.026 262.328L126.074 244.469L134.552 240.451L142.476 258.483C143.844 259.438 145.127 260.905 146.075 262.738Z" fill="#FFB6B6"/>
<path d="M79.4605 423.878L87.0927 423.877L90.7234 394.464L79.459 394.465L79.4605 423.878Z" fill="#FFB6B6"/>
<path d="M105.61 423.705C105.847 424.104 105.973 425.395 105.973 425.86C105.973 427.289 104.813 428.448 103.382 428.448H79.7464C78.7704 428.448 77.9792 427.658 77.9792 426.683V425.699C77.9792 425.699 76.81 422.744 79.2173 419.102C79.2173 419.102 82.2092 421.954 86.6799 417.487L87.9982 415.101L97.5414 422.074L102.831 422.725C103.988 422.867 105.014 422.703 105.61 423.705Z" fill="#2F2E41"/>
<path d="M43.6539 423.878L51.2861 423.877L54.9167 394.464L43.6523 394.465L43.6539 423.878Z" fill="#FFB6B6"/>
<path d="M69.803 423.705C70.0406 424.104 70.166 425.395 70.166 425.86C70.166 427.289 69.0062 428.448 67.5756 428.448H43.9397C42.9638 428.448 42.1726 427.658 42.1726 426.683V425.699C42.1726 425.699 41.0033 422.744 43.4106 419.102C43.4106 419.102 46.4025 421.954 50.8732 417.487L52.1916 415.101L61.7348 422.074L67.0244 422.725C68.1817 422.867 69.2077 422.703 69.803 423.705Z" fill="#2F2E41"/>
<path d="M32.852 250.336L29.6367 269.967L39.6397 333.502L42.1404 410.244H55.6455L62.5035 337.785L61.789 289.956L77.8652 410.958H91.8991L93.2268 259.259L32.852 250.336Z" fill="#2F2E41"/>
<path d="M49.6409 148.609H74.9239L96.7976 161.459C93.3932 160.594 90.7632 192.151 90.6737 220.034C90.6678 221.887 88.8301 224.017 88.8472 225.827C88.8618 227.386 90.7281 228.632 90.7605 230.145C90.7908 231.559 90.829 232.949 90.8753 234.311C90.9138 235.441 88.7972 236.938 88.8472 238.026C88.9109 239.415 91.1448 240.38 91.2277 241.688C91.7377 249.725 92.6166 256.093 93.9396 259.259C93.9396 259.259 37.4944 274.965 33.2075 250.693C33.2075 250.693 33.4523 241.969 33.4179 229.921C33.4149 228.853 32.5038 227.883 32.4959 226.766C32.4901 225.935 33.3888 224.966 33.38 224.112C33.3728 223.41 32.5054 222.79 32.4959 222.074C32.4903 221.647 33.3434 221.129 33.3369 220.698C32.9942 197.789 31.4546 168.918 26.0625 161.459L49.6409 148.609V148.609Z" fill="#DAB998"/>
<path d="M74.6484 148.609C74.6484 148.609 91.0314 154.557 96.2299 159.296C98.9923 161.814 117.518 209.288 117.518 209.288L143.25 254.062L129.875 259.138L102.514 217.855L90.3673 190.727L74.6484 148.609Z" fill="#DAB998"/>
<path d="M40.6672 264.433C43.0567 268.497 42.8955 273.023 40.307 274.542C37.7186 276.061 33.6833 273.998 31.2938 269.934C30.2478 268.155 29.6907 266.288 29.6119 264.623L19.7031 247.276L27.9498 242.803L36.8426 260.379C38.2599 261.258 39.6213 262.654 40.6672 264.433Z" fill="#FFB6B6"/>
<path d="M46.0692 170.739L38.9242 154.32C38.9242 154.32 22.1336 159.674 22.1336 167.526C22.1336 167.526 12.1307 227.492 13.5596 242.483L22.8481 258.902L36.0663 248.551L27.8496 229.633L46.0692 170.739Z" fill="#DAB998"/>
<path d="M31.375 277.41L39.803 260.687L49.6418 274.251L40.7869 282.817L31.375 277.41Z" fill="#2F2E41"/>
<path d="M62.0452 143.892C71.076 143.892 78.397 136.577 78.397 127.554C78.397 118.531 71.076 111.217 62.0452 111.217C53.0143 111.217 45.6934 118.531 45.6934 127.554C45.6934 136.577 53.0143 143.892 62.0452 143.892Z" fill="#FFB6B6"/>
<path d="M74.7955 109.304C71.9539 108.395 70.6093 105.018 68.0101 103.554C65.1355 101.935 61.6967 100.924 58.5268 101.84C56.5819 102.402 54.8874 103.644 52.9411 104.202C52.6009 104.299 52.2429 104.366 51.8795 104.401C49.7864 104.6 47.9894 105.854 46.9433 107.677L46.916 107.724C46.3019 108.774 45.429 109.643 44.6542 110.581C41.8272 114.004 40.2971 118.452 40.3286 122.89C40.3624 127.66 42.1995 132.396 45.3918 135.943L46.2073 135.568C48.178 137.269 50.1487 138.969 52.1195 140.67C51.047 136.804 49.9645 132.802 50.5323 128.83C51.1001 124.858 53.7734 120.895 57.7151 120.128C59.2062 119.838 60.7789 120.014 62.2264 119.553C63.6739 119.093 65.0071 117.606 64.5106 116.171C65.4069 118.539 68.75 118.399 71.0509 119.458C76.2009 121.829 74.3157 118.165 78.7862 121.65C80.2963 113.289 86.0806 112.915 74.7955 109.304L74.7955 109.304Z" fill="#2F2E41"/>
<path d="M183.894 8.90527H154.25C154.089 8.90527 153.959 9.0356 153.959 9.19637V12.486C153.959 12.6468 154.089 12.7771 154.25 12.7771H183.894C184.055 12.7771 184.186 12.6468 184.186 12.486V9.19637C184.186 9.0356 184.055 8.90527 183.894 8.90527Z" fill="#E6E6E6"/>
<path d="M315.432 12.777C317.144 12.777 318.532 11.3902 318.532 9.6795C318.532 7.96882 317.144 6.58203 315.432 6.58203C313.72 6.58203 312.332 7.96882 312.332 9.6795C312.332 11.3902 313.72 12.777 315.432 12.777Z" fill="#E6E6E6"/>
<path d="M323.958 12.777C325.67 12.777 327.058 11.3902 327.058 9.6795C327.058 7.96882 325.67 6.58203 323.958 6.58203C322.245 6.58203 320.857 7.96882 320.857 9.6795C320.857 11.3902 322.245 12.777 323.958 12.777Z" fill="#E6E6E6"/>
<path d="M332.483 12.777C334.195 12.777 335.583 11.3902 335.583 9.6795C335.583 7.96882 334.195 6.58203 332.483 6.58203C330.771 6.58203 329.383 7.96882 329.383 9.6795C329.383 11.3902 330.771 12.777 332.483 12.777Z" fill="#E6E6E6"/>
<path d="M204.79 386.288H155.952C153.881 386.288 152.195 384.604 152.195 382.535C152.195 380.465 153.881 378.781 155.952 378.781H204.79C206.861 378.781 208.547 380.465 208.547 382.535C208.547 384.604 206.861 386.288 204.79 386.288Z" fill="#E6E6E6"/>
<defs>
<clipPath id="clip0_1242_2495">
<rect width="445" height="354" fill="white" transform="translate(106 74)"/>
</clipPath>
</defs>
</svg>
