<svg width="35" height="27" viewBox="0 0 35 27" fill="none" xmlns="http://www.w3.org/2000/svg">
<path d="M15.2567 1.33929C-3.24648 1.33929 -1.90557 25.9996 15.2567 25.9996" stroke="white" stroke-width="2"/>
<path d="M17.7606 9.33349H12.153C10.1806 9.33349 8.58154 10.9325 8.58154 12.905C8.58154 14.8775 10.1806 16.4765 12.153 16.4765H17.6608C19.0889 16.4765 20.2466 17.6342 20.2466 19.0622C20.2466 21.1406 22.5744 22.3697 24.2907 21.1975L28.7034 18.1836C31.5345 16.25 31.8744 12.2035 29.4055 9.82472L24.4575 5.05726C22.8786 3.53594 20.2466 4.6549 20.2466 6.84749C20.2466 8.22047 19.1336 9.33349 17.7606 9.33349Z" fill="white" stroke="white" stroke-width="2"/>
</svg>
