<svg width="39" height="29" viewBox="0 0 39 29" fill="none" xmlns="http://www.w3.org/2000/svg">
<path d="M26.3421 1H12.3636C11.1355 1 9.97534 1.56424 9.21705 2.5304L2.73729 10.7865C1.69511 12.1143 1.59869 13.9535 2.49628 15.3831L9.24217 26.127C9.97397 27.2925 11.2536 28 12.6298 28H26.0753C27.4289 28 28.6906 27.3154 29.4286 26.1807L36.4115 15.4427C37.3582 13.9869 37.2574 12.0865 36.1621 10.739L29.446 2.47692C28.6864 1.5425 27.5463 1 26.3421 1Z" stroke="#C68D53" stroke-width="2"/>
<circle cx="19.6781" cy="14.6771" r="4.1" stroke="#C68D53"/>
<path d="M17.9062 13.2617H20.0293" stroke="#C68D53"/>
<path d="M17.9062 15.0308H21.4447" stroke="#C68D53"/>
<path d="M17.9062 16.4463H20.737" stroke="#C68D53"/>
<path d="M19.3242 10.4309V8.66162" stroke="#C68D53"/>
<path d="M19.3242 7.59995V6.18457" stroke="#C68D53"/>
<rect x="18.4062" y="3.5" width="1.83077" height="2.53846" rx="0.915385" stroke="#C68D53"/>
<path d="M22.913 11.6866L24.1641 10.4355" stroke="#C68D53"/>
<path d="M24.9992 10.0008L26 9" stroke="#C68D53"/>
<path d="M23.5706 14.9985H25.3398" stroke="#C68D53"/>
<path d="M26.401 15.0161H27.8164" stroke="#C68D53"/>
<rect x="30.5" y="14.1152" width="1.83077" height="2.53846" rx="0.915385" transform="rotate(90 30.5 14.1152)" stroke="#C68D53"/>
<path d="M13.6526 15.3315H15.4219" stroke="#C68D53"/>
<path d="M11.1784 15.165H12.5938" stroke="#C68D53"/>
<rect x="11.0391" y="14.1152" width="1.83077" height="2.53846" rx="0.915385" transform="rotate(90 11.0391 14.1152)" stroke="#C68D53"/>
<path d="M19.3242 18.5691V20.3384" stroke="#C68D53"/>
<path d="M19.3242 21.4V22.8154" stroke="#C68D53"/>
<rect x="0.5" y="-0.5" width="1.83077" height="2.53846" rx="0.915385" transform="matrix(1 0 0 -1 17.9062 25)" stroke="#C68D53"/>
<circle cx="27" cy="8" r="1" stroke="#C68D53"/>
<path d="M16.0713 11.804L14.875 10.5005" stroke="#C68D53"/>
<path d="M14.4765 9.64729L13.5195 8.60449" stroke="#C68D53"/>
<circle cx="12.5629" cy="7.56273" r="1" transform="rotate(-87.5439 12.5629 7.56273)" stroke="#C68D53"/>
<path d="M17.3823 18.0001L16.2422 19.353" stroke="#C68D53"/>
<path d="M15.4473 19.8571L14.5352 20.9395" stroke="#C68D53"/>
<circle cx="13.624" cy="22.0212" r="1" transform="rotate(175.122 13.624 22.0212)" stroke="#C68D53"/>
<path d="M22.0005 18L23.2383 19.2642" stroke="#C68D53"/>
<path d="M23.6621 20.1039L24.6523 21.1152" stroke="#C68D53"/>
<circle cx="25.6445" cy="22.1257" r="1" transform="rotate(90.6031 25.6445 22.1257)" stroke="#C68D53"/>
</svg>
