<svg width="39" height="29" viewBox="0 0 39 29" fill="none" xmlns="http://www.w3.org/2000/svg">
<path d="M26.3421 1H12.3636C11.1355 1 9.97534 1.56424 9.21705 2.5304L2.73729 10.7865C1.69511 12.1143 1.59869 13.9535 2.49628 15.3831L9.24217 26.127C9.97397 27.2925 11.2536 28 12.6298 28H26.0753C27.4289 28 28.6906 27.3154 29.4286 26.1807L36.4115 15.4427C37.3582 13.9869 37.2574 12.0865 36.1621 10.739L29.446 2.47692C28.6864 1.5425 27.5463 1 26.3421 1Z" stroke="#C68D53" stroke-width="2"/>
<path d="M11 19.2327V9.08874C11 7.95017 11.9511 7.03591 13.0862 7.12409C21.9264 7.8108 25.7658 10.4354 27.5786 18.9294C27.8349 20.1301 26.8908 21.2327 25.663 21.2327H13C11.8954 21.2327 11 20.3373 11 19.2327Z" stroke="#C68D53" stroke-width="1.7" stroke-linecap="round"/>
<path d="M13.3711 9.37256C19.6967 9.37256 24.0455 12.9307 24.8362 19.2559" stroke="#C68D53" stroke-width="1.5" stroke-linecap="round"/>
<path d="M13.3711 12.1401C18.5106 12.14 20.8827 13.3262 22.0688 18.8611" stroke="#C68D53" stroke-width="1.5" stroke-linecap="round"/>
</svg>
