<svg width="38" height="28" viewBox="0 0 38 28" fill="none" xmlns="http://www.w3.org/2000/svg">
<path d="M26.3932 1H12.3125C11.1135 1 9.97764 1.53791 9.21791 2.46558L2.85996 10.2289C1.75304 11.5805 1.65133 13.4941 2.60875 14.9554L9.2337 25.0671C9.97285 26.1953 11.2308 26.875 12.5795 26.875H26.1258C27.4516 26.875 28.6912 26.2181 29.4357 25.121L36.2932 15.0153C37.3019 13.5287 37.1958 11.5519 36.0337 10.1819L29.4436 2.41256C28.6836 1.51655 27.5681 1 26.3932 1Z" stroke="#C68D53" stroke-width="2"/>
<path d="M11.75 3.75H20C22.3472 3.75 24.25 5.65279 24.25 8V19.25H11.75V3.75Z" fill="white" stroke="#C68D53" stroke-width="1.5"/>
<path d="M17.7409 6.50154L25.7612 8.43465C28.0431 8.98464 29.447 11.2803 28.897 13.5622L26.261 24.499L14.109 21.57L17.7409 6.50154Z" fill="white" stroke="#C68D53" stroke-width="1.5"/>
<path d="M20.0664 11.4824L23.9301 12.5177" stroke="#C68D53" stroke-width="2"/>
<path d="M21.0664 15.4824L24.9301 16.5177" stroke="#C68D53" stroke-width="2"/>
<path d="M18.0664 18.4824L21.9301 19.5177" stroke="#C68D53" stroke-width="2"/>
</svg>
