<svg width="34" height="34" viewBox="0 0 34 34" fill="none" xmlns="http://www.w3.org/2000/svg">
<path d="M15.3612 4.0869C16.1574 2.94888 17.8426 2.94888 18.6388 4.0869L19.0454 4.66819C20.0101 6.04704 21.7346 6.6747 23.3598 6.2385L24.045 6.05461C25.3864 5.6946 26.6774 6.77784 26.5558 8.16137L26.4936 8.86807C26.3463 10.5444 27.2639 12.1337 28.7893 12.8442L29.4324 13.1438C30.6913 13.7302 30.984 15.3899 30.0015 16.3715L29.4996 16.873C28.3093 18.0624 27.9906 19.8697 28.7024 21.3945L29.0025 22.0373C29.5899 23.2958 28.7473 24.7553 27.3637 24.8758L26.6569 24.9373C24.9805 25.0833 23.5747 26.2629 23.1398 27.8885L22.9565 28.5739C22.5976 29.9155 21.014 30.4919 19.8766 29.6948L19.2956 29.2877C17.9176 28.3219 16.0824 28.3219 14.7044 29.2877L14.1234 29.6948C12.986 30.4919 11.4024 29.9155 11.0435 28.5739L10.8602 27.8885C10.4253 26.2629 9.0195 25.0833 7.34306 24.9373L6.63631 24.8758C5.25268 24.7553 4.41007 23.2958 4.99754 22.0373L5.29762 21.3945C6.00941 19.8697 5.69074 18.0624 4.50035 16.873L3.99851 16.3715C3.01603 15.3899 3.30866 13.7302 4.56765 13.1438L4.1454 12.2373L4.56765 13.1438L5.21072 12.8442C6.73614 12.1337 7.65371 10.5444 7.50636 8.86807L7.44425 8.16137C7.32264 6.77784 8.61359 5.6946 9.95499 6.05461L10.6402 6.2385C12.2654 6.6747 13.9899 6.04704 14.9546 4.66819L15.3612 4.0869Z" fill="#4663AC" stroke="#4663AC" stroke-width="2"/>
<path d="M10.752 15.9823L13.1428 18.7556C13.8384 19.5626 15.0445 19.6826 15.8855 19.0285L23.5383 13.0763" stroke="white" stroke-width="2"/>
</svg>
