<svg width="25" height="21" viewBox="0 0 25 21" fill="none" xmlns="http://www.w3.org/2000/svg">
<rect x="3.81641" y="5.69312" width="4.02332" height="3.57629" rx="1.78814" fill="#4663AC"/>
<rect x="9.77686" y="10.7598" width="1.93716" height="1.78814" rx="0.894072" fill="#4663AC"/>
<path d="M8.43579 8.22681L9.76772 7.16127C10.088 6.90501 10.5324 6.87038 10.8886 7.0739L12.35 7.90902C12.689 8.10272 13.1097 8.08143 13.4274 7.85451L14.4111 7.15186C14.7588 6.90351 15.2259 6.90351 15.5736 7.15186L16.4866 7.804C16.8394 8.05606 17.3146 8.05195 17.663 7.79383L18.4586 7.20454C18.8292 6.92997 19.3396 6.94457 19.694 7.23988L20.8783 8.22681" stroke="#4663AC"/>
<path d="M12.6082 11.5791H20.5058" stroke="#4663AC"/>
<rect x="9.77686" y="13.2924" width="1.93716" height="1.78814" rx="0.894072" fill="#4663AC"/>
<path d="M12.6082 14.1124H20.5058" stroke="#4663AC"/>
<path d="M20 1H5C2.79086 1 1 2.79086 1 5V15.3061C1 17.5153 2.79086 19.3061 5 19.3061H20C22.2091 19.3061 24 17.5153 24 15.3061V5C24 2.79086 22.2091 1 20 1Z" stroke="#4663AC" stroke-width="2"/>
</svg>
