<svg width="20" height="16" viewBox="0 0 20 16" fill="none" xmlns="http://www.w3.org/2000/svg">
<path d="M16.5897 1H3C1.89543 1 1 1.89543 1 3V13C1 14.1046 1.89543 15 3 15H16.5897C17.6943 15 18.5897 14.1046 18.5897 13V3C18.5897 1.89543 17.6943 1 16.5897 1Z" fill="#DAB998" stroke="#DAB998" stroke-width="1.5"/>
<rect x="3.91602" y="4.58936" width="1.72074" height="1.52954" rx="0.764771" fill="white"/>
<rect x="5.71094" y="8.46436" width="1.48148" height="1.36752" rx="0.683761" fill="white"/>
<path d="M6.68359 5.76216L7.57737 5.04714C7.8977 4.79088 8.34204 4.75624 8.6982 4.95976L9.54625 5.44436C9.88523 5.63806 10.3059 5.61678 10.6236 5.38985L11.1166 5.03773C11.4643 4.78937 11.9314 4.78937 12.2791 5.03773L12.7013 5.33935C13.0542 5.59141 13.5293 5.5873 13.8778 5.32917L14.2001 5.09041C14.5708 4.81584 15.0812 4.83044 15.4356 5.12574L16.1993 5.76216" stroke="white"/>
<path d="M8.875 9.09131H14.9149" stroke="white"/>
<rect x="5.71094" y="10.4009" width="1.48148" height="1.36752" rx="0.683761" fill="white"/>
<path d="M8.875 11.0283H14.9149" stroke="white"/>
</svg>
