<svg width="22" height="20" viewBox="0 0 22 20" fill="none" xmlns="http://www.w3.org/2000/svg">
<path d="M5.6 1.2562C7.6025 0.723949 9.21899 0.989228 10.7901 2.35186C12.359 3.7126 11.3305 5.75154 12.6492 7.36059C14.7846 9.96606 19.7231 6.89099 20.783 10.0997C21.8375 13.2921 18.8573 15.5254 15.9802 17.2215C11.8674 19.6461 7.2144 19.0281 3.89578 15.578C1.56232 13.1521 0.553227 10.6826 1.18454 7.36059C1.73558 4.46094 2.77364 2.00744 5.6 1.2562Z" stroke="#6382C1"/>
<path d="M10.7597 12.1578C10.1221 12.1595 9.34879 12.7457 9.04823 12.9955C8.96139 13.0676 8.87307 13.1361 8.78127 13.2018C8.37706 13.4912 7.23483 14.3892 7.32049 15.2396C7.43555 16.3819 8.56567 16.8458 9.71994 16.978C11.2781 17.1564 12.9578 16.2356 12.9992 14.6864C13.0342 13.3748 12.0878 12.1544 10.7597 12.1578Z" fill="#6382C1"/>
<path d="M8.76506 3.30734C7.74619 2.54192 6.63734 3.08873 5.52746 3.71493C4.0736 4.5352 3.39623 5.71741 3.33723 7.38567C3.2526 9.77868 5.11401 12.6281 7.41481 11.9648C9.51719 11.3588 9.09468 8.83548 9.1858 6.64938C9.24058 5.33507 9.8168 4.09744 8.76506 3.30734Z" fill="#6382C1"/>
<ellipse cx="16.1582" cy="11.4208" rx="1.26316" ry="0.947368" fill="#6382C1"/>
</svg>
