<svg width="22" height="20" viewBox="0 0 22 20" fill="none" xmlns="http://www.w3.org/2000/svg">
<path d="M5.6 1.2562C7.6025 0.723949 9.21899 0.989228 10.7901 2.35186C12.359 3.7126 11.3305 5.75154 12.6492 7.36059C14.7846 9.96606 19.7231 6.89099 20.783 10.0997C21.8375 13.2921 18.8573 15.5254 15.9802 17.2215C11.8674 19.6461 7.2144 19.0281 3.89578 15.578C1.56232 13.1521 0.553227 10.6826 1.18454 7.36059C1.73558 4.46094 2.77364 2.00744 5.6 1.2562Z" fill="#DAB998" stroke="#DAB998"/>
<path d="M14.4438 11C13.8061 11.0017 13.0329 11.5879 12.7323 11.8377C12.6455 11.9098 12.5572 11.9783 12.4654 12.044C12.0611 12.3334 10.9189 13.2313 11.0046 14.0817C11.1196 15.2241 12.2497 15.6879 13.404 15.8201C14.9622 15.9986 16.6419 15.0778 16.6833 13.5286C16.7183 12.2169 15.7719 10.9965 14.4438 11Z" fill="white"/>
<path d="M5.24229 10.6114C6.05358 11.2499 6.77575 10.517 7.68608 10.03C8.87856 9.39207 9.41309 9.08244 9.49125 7.73232C9.60335 5.79566 8.14759 3.45388 6.272 3.94923C4.55816 4.40186 4.85444 6.45325 4.74084 8.22221C4.67254 9.28573 4.40483 9.95233 5.24229 10.6114Z" fill="white"/>
<ellipse cx="8.26316" cy="13.9474" rx="1.26316" ry="0.947368" fill="white"/>
</svg>
