<svg width="24" height="29" viewBox="0 0 24 29" fill="none" xmlns="http://www.w3.org/2000/svg">
<path d="M20.7578 14.7509C20.6868 15.2986 21.0733 15.8001 21.621 15.8711C22.1687 15.9421 22.6703 15.5556 22.7412 15.0079L20.7578 14.7509ZM1.62686 10.1903L13.1316 11.1779L8.23451 0.720711L1.62686 10.1903ZM22.7412 15.0079C23.2016 11.454 22.1713 8.37536 19.7306 6.52514C17.3132 4.69252 13.7508 4.24781 9.51334 5.40885L10.0419 7.33776C13.9187 6.27551 16.7691 6.78974 18.5224 8.11893C20.2525 9.43052 21.1509 11.7166 20.7578 14.7509L22.7412 15.0079Z" fill="#4663AC"/>
<path d="M2.41002 14.8889C2.46112 14.339 2.05676 13.8518 1.50684 13.8007C0.956925 13.7496 0.469702 14.1539 0.418597 14.7039L2.41002 14.8889ZM21.6934 18.7548L10.1605 18.1839L15.4325 28.4571L21.6934 18.7548ZM0.418597 14.7039C0.0869913 18.2721 1.22803 21.3114 3.73397 23.0722C6.21607 24.8162 9.79222 25.1318 13.9849 23.8183L13.387 21.9097C9.55108 23.1115 6.68403 22.7007 4.88378 21.4357C3.10737 20.1876 2.12689 17.9355 2.41002 14.8889L0.418597 14.7039Z" fill="#4663AC"/>
<path d="M14.7657 10.1294L14.3247 14.8184H13.2357V9.97641L14.7657 10.1294ZM13.6947 15.7094C13.8447 15.7094 13.9767 15.7394 14.0907 15.7994C14.2107 15.8594 14.3097 15.9374 14.3877 16.0334C14.4717 16.1234 14.5347 16.2254 14.5767 16.3394C14.6187 16.4474 14.6397 16.5524 14.6397 16.6544C14.6397 16.7864 14.6127 16.9124 14.5587 17.0324C14.5107 17.1524 14.4417 17.2574 14.3517 17.3474C14.2677 17.4374 14.1657 17.5094 14.0457 17.5634C13.9317 17.6174 13.8117 17.6444 13.6857 17.6444C13.5237 17.6444 13.3827 17.6174 13.2627 17.5634C13.1427 17.5154 13.0437 17.4494 12.9657 17.3654C12.8877 17.2754 12.8277 17.1764 12.7857 17.0684C12.7497 16.9604 12.7317 16.8494 12.7317 16.7354C12.7317 16.6154 12.7527 16.4954 12.7947 16.3754C12.8367 16.2494 12.8967 16.1384 12.9747 16.0424C13.0587 15.9404 13.1607 15.8594 13.2807 15.7994C13.4007 15.7394 13.5387 15.7094 13.6947 15.7094Z" fill="#4663AC"/>
</svg>
