<svg width="20" height="18" viewBox="0 0 20 18" fill="none" xmlns="http://www.w3.org/2000/svg">
<circle cx="12" cy="8" r="7" stroke="#C68D53" stroke-width="2"/>
<path d="M6.5 12.5L2 16" stroke="#C68D53" stroke-width="2" stroke-linecap="square"/>
<path d="M13.39 3.76L12.9 8.97H11.69V3.59L13.39 3.76ZM12.2 9.96C12.3667 9.96 12.5133 9.99333 12.64 10.06C12.7733 10.1267 12.8833 10.2133 12.97 10.32C13.0633 10.42 13.1333 10.5333 13.18 10.66C13.2267 10.78 13.25 10.8967 13.25 11.01C13.25 11.1567 13.22 11.2967 13.16 11.43C13.1067 11.5633 13.03 11.68 12.93 11.78C12.8367 11.88 12.7233 11.96 12.59 12.02C12.4633 12.08 12.33 12.11 12.19 12.11C12.01 12.11 11.8533 12.08 11.72 12.02C11.5867 11.9667 11.4767 11.8933 11.39 11.8C11.3033 11.7 11.2367 11.59 11.19 11.47C11.15 11.35 11.13 11.2267 11.13 11.1C11.13 10.9667 11.1533 10.8333 11.2 10.7C11.2467 10.56 11.3133 10.4367 11.4 10.33C11.4933 10.2167 11.6067 10.1267 11.74 10.06C11.8733 9.99333 12.0267 9.96 12.2 9.96Z" fill="#C68D53"/>
</svg>
