<svg width="39" height="29" viewBox="0 0 39 29" fill="none" xmlns="http://www.w3.org/2000/svg">
<path d="M26.3421 1H12.3636C11.1355 1 9.97534 1.56424 9.21705 2.5304L2.73729 10.7865C1.69511 12.1143 1.59869 13.9535 2.49628 15.3831L9.24217 26.127C9.97397 27.2925 11.2536 28 12.6298 28H26.0753C27.4289 28 28.6906 27.3154 29.4286 26.1807L36.4115 15.4427C37.3582 13.9869 37.2574 12.0865 36.1621 10.739L29.446 2.47692C28.6864 1.5425 27.5463 1 26.3421 1Z" stroke="#C68D53" stroke-width="2"/>
<rect x="11.5" y="5.5" width="16.3333" height="3.66667" rx="1.5" stroke="#C68D53"/>
<rect x="11.5" y="9.5" width="16.3333" height="3.66667" rx="1.5" stroke="#C68D53"/>
<path d="M19.6641 13.6665V16.3332" stroke="#C68D53"/>
<circle cx="19.668" cy="17.6665" r="1.5" stroke="#C68D53"/>
<path d="M21 18H25" stroke="#C68D53"/>
<path d="M14.332 18H18.332" stroke="#C68D53"/>
<path d="M14.332 17.667V20.3337" stroke="#C68D53"/>
<path d="M25 17.667V20.3337" stroke="#C68D53"/>
<rect x="12.168" y="20.833" width="4.33333" height="2.33333" rx="1.16667" stroke="#C68D53"/>
<rect x="22.8359" y="20.833" width="4.33333" height="2.33333" rx="1.16667" stroke="#C68D53"/>
<path d="M13 23.3335V25.0002" stroke="#C68D53"/>
<path d="M15 23.3335V25.0002" stroke="#C68D53"/>
<path d="M24.332 23.3335V25.0002" stroke="#C68D53"/>
<path d="M26.332 23.3335V25.0002" stroke="#C68D53"/>
</svg>
