<svg width="14" height="14" viewBox="0 0 14 14" fill="none" xmlns="http://www.w3.org/2000/svg">
<path d="M3.13411 5.8335C2.92023 5.8335 2.75495 5.76291 2.63828 5.62175C2.52161 5.48097 2.49245 5.31336 2.55078 5.11891C2.81328 4.30225 3.29453 3.63394 3.99453 3.114C4.69453 2.59366 5.50148 2.3335 6.41536 2.3335C6.98898 2.3335 7.52623 2.44277 8.02711 2.66133C8.52761 2.88027 8.96259 3.17933 9.33203 3.5585V2.91683C9.33203 2.75155 9.38803 2.61291 9.50003 2.50091C9.61164 2.3893 9.75009 2.3335 9.91536 2.3335C10.0806 2.3335 10.2191 2.3893 10.3307 2.50091C10.4427 2.61291 10.4987 2.75155 10.4987 2.91683V5.25016C10.4987 5.41544 10.4427 5.55388 10.3307 5.6655C10.2191 5.7775 10.0806 5.8335 9.91536 5.8335H7.58203C7.41675 5.8335 7.27831 5.7775 7.1667 5.6655C7.0547 5.55388 6.9987 5.41544 6.9987 5.25016C6.9987 5.08488 7.0547 4.94625 7.1667 4.83425C7.27831 4.72263 7.41675 4.66683 7.58203 4.66683H8.7487C8.46675 4.31683 8.12881 4.03489 7.73486 3.821C7.34131 3.60711 6.90148 3.50016 6.41536 3.50016C5.78342 3.50016 5.21467 3.68002 4.70911 4.03975C4.20356 4.39947 3.85356 4.86613 3.65911 5.43975C3.62023 5.55641 3.55217 5.65111 3.45495 5.72383C3.35773 5.79694 3.25078 5.8335 3.13411 5.8335ZM11.0237 11.8418L8.86536 9.6835C8.51536 9.946 8.13386 10.1476 7.72086 10.2884C7.30748 10.4296 6.87231 10.5002 6.41536 10.5002C5.84175 10.5002 5.3047 10.3909 4.8042 10.1723C4.30331 9.95338 3.86814 9.65433 3.4987 9.27516V9.91683C3.4987 10.0821 3.44289 10.2206 3.33128 10.3322C3.21928 10.4442 3.08064 10.5002 2.91536 10.5002C2.75009 10.5002 2.61145 10.4442 2.49945 10.3322C2.38784 10.2206 2.33203 10.0821 2.33203 9.91683V7.5835C2.33203 7.41822 2.38784 7.27958 2.49945 7.16758C2.61145 7.05597 2.75009 7.00016 2.91536 7.00016H5.2487C5.41398 7.00016 5.55261 7.05597 5.66461 7.16758C5.77623 7.27958 5.83203 7.41822 5.83203 7.5835C5.83203 7.74877 5.77623 7.88722 5.66461 7.99883C5.55261 8.11083 5.41398 8.16683 5.2487 8.16683H4.08203C4.36398 8.51683 4.70192 8.79877 5.09586 9.01266C5.48942 9.22655 5.92925 9.3335 6.41536 9.3335C7.04731 9.3335 7.61606 9.15363 8.12161 8.79391C8.62717 8.43419 8.97717 7.96752 9.17161 7.39391C9.2105 7.27725 9.27856 7.18255 9.37578 7.10983C9.473 7.03672 9.57995 7.00016 9.69661 7.00016C9.9105 7.00016 10.0758 7.07308 10.1924 7.21891C10.3091 7.36475 10.3383 7.53488 10.2799 7.72933C10.2119 7.9335 10.1293 8.13027 10.032 8.31966C9.93481 8.50944 9.81814 8.69183 9.68203 8.86683L11.8404 11.0252C11.9473 11.1321 12.0008 11.2682 12.0008 11.4335C12.0008 11.5988 11.9473 11.7349 11.8404 11.8418C11.7334 11.9488 11.5973 12.0022 11.432 12.0022C11.2668 12.0022 11.1306 11.9488 11.0237 11.8418V11.8418Z" fill="#C68D53"/>
</svg>
