<svg width="38" height="28" viewBox="0 0 38 28" fill="none" xmlns="http://www.w3.org/2000/svg">
<path d="M10 8H28C28.5523 8 29 8.44772 29 9V19C29 19.5523 28.5523 20 28 20H11.9764C11.4643 20 11.035 19.6132 10.9818 19.104L10.1825 11.4602C10.102 10.6894 10.8908 10.1239 11.5949 10.4476L18.8657 13.7907C19.1521 13.9224 19.4839 13.9114 19.7609 13.7608L27.2075 9.71429" stroke="#C68D53" stroke-width="1.5" stroke-linecap="round"/>
<path d="M26.3932 1H12.3125C11.1135 1 9.97764 1.53791 9.21791 2.46558L2.85996 10.2289C1.75304 11.5805 1.65133 13.4941 2.60875 14.9554L9.2337 25.0671C9.97285 26.1953 11.2308 26.875 12.5795 26.875H26.1258C27.4516 26.875 28.6912 26.2181 29.4357 25.121L36.2932 15.0153C37.3019 13.5287 37.1958 11.5519 36.0337 10.1819L29.4436 2.41256C28.6836 1.51655 27.5681 1 26.3932 1Z" stroke="#C68D53" stroke-width="2"/>
<path fill-rule="evenodd" clip-rule="evenodd" d="M18.9358 15.856C18.4356 15.6105 18.1477 15.1053 18.1549 14.5828C18.1117 14.5591 18.0702 14.5333 18.0305 14.5057C17.6484 15.0801 16.8905 15.2963 16.2544 14.9841C15.5625 14.6445 15.2769 13.8083 15.6165 13.1163C15.7885 12.7658 16.088 12.5196 16.4316 12.406C16.3112 12.0648 16.3228 11.6773 16.4948 11.3268C16.8344 10.6348 17.6706 10.3492 18.3626 10.6888C18.5552 10.7833 18.7164 10.9164 18.8413 11.0741C19.198 10.4238 20.0068 10.1632 20.6794 10.4933C21.3519 10.8234 21.6406 11.6226 21.3445 12.3025C21.5457 12.3049 21.7496 12.351 21.9423 12.4455C22.6342 12.7851 22.9198 13.6213 22.5803 14.3133C22.2681 14.9494 21.5361 15.2421 20.8824 15.0213C20.8615 15.0878 20.8352 15.1535 20.8036 15.218C20.464 15.91 19.6278 16.1956 18.9358 15.856Z" fill="#C68D53"/>
</svg>
