<svg width="39" height="29" viewBox="0 0 39 29" fill="none" xmlns="http://www.w3.org/2000/svg">
<path d="M21.6021 6.4884H23.6745C25.8836 6.4884 27.6745 8.27926 27.6745 10.4884V18.7111" stroke="#4663AC" stroke-width="2"/>
<path d="M17.3982 23.0708H15.3258C13.1166 23.0708 11.3258 21.2799 11.3258 19.0708V10.8481" stroke="#4663AC" stroke-width="2"/>
<path d="M20.3565 6.4884H14.5954C12.7896 6.4884 11.3257 7.95233 11.3257 9.75817V9.75817" stroke="#4663AC" stroke-width="2" stroke-dasharray="10 10"/>
<path d="M18.6438 23.1482H24.4048C26.2106 23.1482 27.6746 21.6843 27.6746 19.8784V19.8784" stroke="#4663AC" stroke-width="2" stroke-dasharray="10 10"/>
<path d="M14.2842 10.4589H24.4049" stroke="#4663AC" stroke-width="2"/>
<path d="M14.2842 18.7887H24.4049" stroke="#4663AC" stroke-width="2"/>
<path d="M14.4387 14.6628H20.3575" stroke="#4663AC" stroke-width="2"/>
<path d="M26.3421 1H12.3636C11.1355 1 9.97534 1.56424 9.21705 2.5304L2.73729 10.7865C1.69511 12.1143 1.59869 13.9535 2.49628 15.3831L9.24217 26.127C9.97397 27.2925 11.2536 28 12.6298 28H26.0753C27.4289 28 28.6906 27.3154 29.4286 26.1807L36.4115 15.4427C37.3582 13.9869 37.2574 12.0865 36.1621 10.739L29.446 2.47692C28.6864 1.5425 27.5463 1 26.3421 1Z" stroke="#4663AC" stroke-width="2"/>
</svg>
