<svg width="16" height="16" viewBox="0 0 16 16" fill="none" xmlns="http://www.w3.org/2000/svg">
<path d="M15.2563 9.99858L14.105 9.01421C14.1595 8.68022 14.1876 8.33921 14.1876 7.99819C14.1876 7.65718 14.1595 7.31616 14.105 6.98218L15.2563 5.9978C15.3432 5.92346 15.4053 5.82444 15.4346 5.71391C15.4638 5.60339 15.4586 5.48659 15.4198 5.37905L15.404 5.33335C15.087 4.44746 14.6124 3.62622 14.003 2.90933L13.9714 2.87241C13.8975 2.78549 13.7989 2.72301 13.6888 2.6932C13.5787 2.66339 13.4621 2.66765 13.3544 2.70542L11.9253 3.21343C11.398 2.78101 10.8091 2.43999 10.1728 2.20093L9.89678 0.706787C9.87596 0.594361 9.82142 0.490932 9.74042 0.41024C9.65941 0.329549 9.55577 0.275414 9.44326 0.255029L9.3958 0.24624C8.47998 0.0810059 7.5167 0.0810059 6.60088 0.24624L6.55342 0.255029C6.44092 0.275414 6.33727 0.329549 6.25627 0.41024C6.17526 0.490932 6.12073 0.594361 6.09991 0.706787L5.82217 2.20796C5.19092 2.44707 4.60307 2.78791 4.08194 3.21694L2.64229 2.70542C2.53465 2.66735 2.41798 2.66293 2.30777 2.69276C2.19756 2.72259 2.09904 2.78525 2.0253 2.87241L1.99366 2.90933C1.38501 3.62673 0.91045 4.44783 0.592679 5.33335L0.576859 5.37905C0.497757 5.59878 0.562797 5.84487 0.740336 5.9978L1.90577 6.99272C1.85127 7.32319 1.82491 7.66069 1.82491 7.99644C1.82491 8.33393 1.85127 8.67144 1.90577 9.00015L0.740336 9.99507C0.653492 10.0694 0.591337 10.1684 0.562136 10.279C0.532934 10.3895 0.538069 10.5063 0.576859 10.6138L0.592679 10.6595C0.910843 11.5455 1.38194 12.3628 1.99366 13.0835L2.0253 13.1205C2.09922 13.2074 2.19774 13.2699 2.30789 13.2997C2.41803 13.3295 2.53462 13.3252 2.64229 13.2875L4.08194 12.7759C4.60576 13.2066 5.19112 13.5476 5.82217 13.7849L6.09991 15.2861C6.12073 15.3985 6.17526 15.5019 6.25627 15.5826C6.33727 15.6633 6.44092 15.7175 6.55342 15.7378L6.60088 15.7466C7.52512 15.9128 8.47157 15.9128 9.3958 15.7466L9.44326 15.7378C9.55577 15.7175 9.65941 15.6633 9.74042 15.5826C9.82142 15.5019 9.87596 15.3985 9.89678 15.2861L10.1728 13.7919C10.8088 13.5535 11.401 13.2114 11.9253 12.7794L13.3544 13.2875C13.462 13.3255 13.5787 13.3299 13.6889 13.3001C13.7991 13.2703 13.8976 13.2076 13.9714 13.1205L14.003 13.0835C14.6147 12.3611 15.0858 11.5455 15.404 10.6595L15.4198 10.6138C15.4989 10.3976 15.4339 10.1515 15.2563 9.99858ZM12.8569 7.1896C12.9009 7.45503 12.9237 7.72749 12.9237 7.99995C12.9237 8.27241 12.9009 8.54487 12.8569 8.8103L12.7409 9.51519L14.054 10.6384C13.8549 11.097 13.6037 11.5311 13.3052 11.9322L11.6739 11.3539L11.122 11.8074C10.7019 12.1519 10.2343 12.4226 9.72803 12.6125L9.0583 12.8638L8.74365 14.5689C8.2472 14.6251 7.74597 14.6251 7.24951 14.5689L6.93487 12.8603L6.27041 12.6054C5.76944 12.4156 5.30362 12.1449 4.88701 11.8021L4.33506 11.3468L2.69327 11.9304C2.39444 11.5279 2.14483 11.0937 1.94444 10.6367L3.27159 9.50288L3.15733 8.79976C3.11514 8.53784 3.09229 8.26714 3.09229 7.99995C3.09229 7.73101 3.11338 7.46206 3.15733 7.20015L3.27159 6.49702L1.94444 5.36323C2.14307 4.90444 2.39444 4.47202 2.69327 4.06948L4.33506 4.65308L4.88701 4.1978C5.30362 3.85503 5.76944 3.58433 6.27041 3.39448L6.93662 3.14312L7.25127 1.43452C7.74522 1.37827 8.24971 1.37827 8.74541 1.43452L9.06006 3.1396L9.72979 3.39097C10.2343 3.58081 10.7036 3.85151 11.1237 4.19604L11.6757 4.64956L13.3069 4.07124C13.6058 4.47378 13.8554 4.90796 14.0558 5.36499L12.7427 6.48823L12.8569 7.1896ZM8.0001 4.73042C6.29151 4.73042 4.90635 6.11558 4.90635 7.82417C4.90635 9.53276 6.29151 10.9179 8.0001 10.9179C9.70869 10.9179 11.0939 9.53276 11.0939 7.82417C11.0939 6.11558 9.70869 4.73042 8.0001 4.73042ZM9.39229 9.21636C9.20969 9.39948 8.99269 9.54469 8.75376 9.64364C8.51484 9.74259 8.2587 9.79332 8.0001 9.79292C7.47451 9.79292 6.98057 9.58726 6.60791 9.21636C6.42479 9.03376 6.27958 8.81676 6.18063 8.57783C6.08168 8.33891 6.03095 8.08277 6.03135 7.82417C6.03135 7.29858 6.23701 6.80464 6.60791 6.43198C6.98057 6.05933 7.47451 5.85542 8.0001 5.85542C8.52569 5.85542 9.01963 6.05933 9.39229 6.43198C9.57541 6.61458 9.72062 6.83158 9.81957 7.07051C9.91852 7.30943 9.96925 7.56557 9.96885 7.82417C9.96885 8.34976 9.76319 8.8437 9.39229 9.21636Z" fill="#4663AC"/>
</svg>
