<svg width="38" height="28" viewBox="0 0 38 28" fill="none" xmlns="http://www.w3.org/2000/svg">
<path d="M26.3932 1H12.3125C11.1135 1 9.97764 1.53791 9.21791 2.46558L2.85996 10.2289C1.75304 11.5805 1.65133 13.4941 2.60875 14.9554L9.2337 25.0671C9.97285 26.1953 11.2308 26.875 12.5795 26.875H26.1258C27.4516 26.875 28.6912 26.2181 29.4357 25.121L36.2932 15.0153C37.3019 13.5287 37.1958 11.5519 36.0337 10.1819L29.4436 2.41256C28.6836 1.51655 27.5681 1 26.3932 1Z" stroke="#C68D53" stroke-width="2"/>
<path d="M16.0774 5H12C10.8954 5 10 5.89543 10 7V19C10 20.1046 10.8954 21 12 21H27C28.1046 21 29 20.1046 29 19V11.5714C29 10.4669 28.1046 9.57143 27 9.57143H21.3392C20.6831 9.57143 20.0688 9.24963 19.6952 8.71029L17.7215 5.86113C17.3479 5.3218 16.7335 5 16.0774 5Z" stroke="#C68D53" stroke-width="2"/>
<rect x="13" y="19" width="6" height="7" rx="2" transform="rotate(-90 13 19)" fill="#C68D53"/>
<path d="M14.5 13.5L15.2653 10.1839C15.487 9.22283 16.8189 9.12919 17.173 10.0498L18.5 13.5" stroke="#C68D53"/>
<circle cx="16.5" cy="15.5" r="1" fill="white"/>
</svg>
