<svg width="39" height="29" viewBox="0 0 39 29" fill="none" xmlns="http://www.w3.org/2000/svg">
<path d="M26.3421 1H12.3636C11.1355 1 9.97534 1.56424 9.21705 2.5304L2.73729 10.7865C1.69511 12.1143 1.59869 13.9535 2.49628 15.3831L9.24217 26.127C9.97397 27.2925 11.2536 28 12.6298 28H26.0753C27.4289 28 28.6906 27.3154 29.4286 26.1807L36.4115 15.4427C37.3582 13.9869 37.2574 12.0865 36.1621 10.739L29.446 2.47692C28.6864 1.5425 27.5463 1 26.3421 1Z" stroke="#C68D53" stroke-width="2"/>
<path d="M12.296 13.4456C12.296 13.4456 13.1562 9.73043 14.875 9.56495C17.3053 9.33097 18.031 12.2846 20.7172 13.7736C23.5245 15.3297 24.9273 11.7682 24.9273 11.7682" stroke="#C68D53" stroke-width="1.5" stroke-linecap="round"/>
<path d="M25.1239 8.39338C25.4481 8.09996 25.9672 8.24073 26.0987 8.65773L26.9717 11.4253C27.1145 11.8778 26.7004 12.3091 26.2425 12.1849L23.2178 11.3647C22.7599 11.2405 22.6205 10.6591 22.9722 10.3408L25.1239 8.39338Z" fill="#C68D53"/>
<path d="M10.9 19.5196C10.5 19.2887 10.5 18.7113 10.9 18.4804L13.6 16.9215C14 16.6906 14.5 16.9793 14.5 17.4412L14.5 20.5588C14.5 21.0207 14 21.3094 13.6 21.0785L10.9 19.5196Z" fill="#C68D53"/>
<path d="M27 19H14" stroke="#C68D53" stroke-width="1.5" stroke-linecap="round"/>
</svg>
