<svg width="38" height="28" viewBox="0 0 38 28" fill="none" xmlns="http://www.w3.org/2000/svg">
<path d="M26.3932 1H12.3125C11.1135 1 9.97764 1.53791 9.21791 2.46558L2.85996 10.2289C1.75304 11.5805 1.65133 13.4941 2.60875 14.9554L9.2337 25.0671C9.97285 26.1953 11.2308 26.875 12.5795 26.875H26.1258C27.4516 26.875 28.6912 26.2181 29.4357 25.121L36.2932 15.0153C37.3019 13.5287 37.1958 11.5519 36.0337 10.1819L29.4436 2.41256C28.6836 1.51655 27.5681 1 26.3932 1Z" stroke="#C68D53" stroke-width="2"/>
<path d="M16 16H23.5C23.7761 16 24 16.2239 24 16.5V20.5C24 20.7761 23.7761 21 23.5 21H16.9028C16.647 21 16.4324 20.8069 16.4056 20.5525L16.0919 17.5842C16.0513 17.1995 16.4441 16.9164 16.7962 17.0766L19.6989 18.3974C19.8411 18.462 20.0053 18.4566 20.1428 18.3826L23.2453 16.7143" stroke="#C68D53" stroke-linecap="round"/>
<rect x="12" y="5" width="16" height="4" rx="1" fill="#C68D53"/>
<rect x="12" y="10" width="16" height="4" rx="1" fill="#C68D53"/>
<circle cx="16" cy="7" r="1" fill="white"/>
<circle cx="20" cy="7" r="1" fill="white"/>
<circle cx="24" cy="7" r="1" fill="white"/>
<circle cx="24" cy="12" r="1" fill="white"/>
<circle cx="20" cy="12" r="1" fill="white"/>
<circle cx="16" cy="12" r="1" fill="white"/>
</svg>
