<svg width="23" height="23" viewBox="0 0 23 23" fill="none" xmlns="http://www.w3.org/2000/svg">
<path d="M16.8906 3.59626L15.5225 9.20531L11.349 5.21592L16.8906 3.59626ZM14.1427 7.19467L13.8148 7.53767L13.0919 6.84669L13.4198 6.50369L14.1427 7.19467ZM13.8148 7.53767C11.1889 10.2847 11.2871 14.6404 14.0342 17.2662L13.3432 17.9891C10.1969 14.9816 10.0844 9.99298 13.0919 6.84669L13.8148 7.53767Z" fill="#4663AC"/>
<line x1="8.34036" y1="5.00893" x2="11.2813" y2="7.82017" stroke="#4663AC"/>
<path d="M6.10254 19.5679L11.804 18.6589L8.16606 14.1757L6.10254 19.5679ZM9.91186 17.1206L11.4333 15.886L10.8032 15.1095L9.28174 16.3441L9.91186 17.1206Z" fill="#4663AC"/>
<path d="M13.2015 9.6304L14.8686 11.1524C15.2831 11.5308 15.305 12.1762 14.9172 12.5819L12.9854 14.6029" stroke="#4663AC"/>
</svg>
