<svg width="63" height="65" viewBox="0 0 63 65" fill="none" xmlns="http://www.w3.org/2000/svg">
<path d="M28.1983 0.789551H3C1.89543 0.789551 1 1.68498 1 2.78955V50.158C1 51.2625 1.89543 52.158 3 52.158H60C61.1046 52.158 62 51.2625 62 50.158V15.5622C62 14.4577 61.1046 13.5622 60 13.5622H41.9933C41.4432 13.5622 40.9175 13.3357 40.5397 12.936L29.6519 1.41579C29.2741 1.01606 28.7483 0.789551 28.1983 0.789551Z" fill="#F8F0C9" stroke="#c68d53" stroke-linecap="round"/>
<path d="M14.3108 52.6961L9.10005 55.3107C8.94003 55.391 8.77314 55.4568 8.60138 55.5073L4.98295 56.5719C4.85752 56.6088 4.72847 56.6321 4.59805 56.6412L4.15333 56.6723C2.85055 56.7636 2.2085 58.3007 3.05928 59.2915C3.13166 59.3758 3.21268 59.4523 3.30102 59.5197L4.38773 60.3486L5.87833 61.4118L7.50444 62.342L9.53708 63.4052L10.808 64.0284C11.0438 64.1441 11.2937 64.2282 11.5514 64.2788L13.8734 64.7342L15.2591 64.9607C15.4191 64.9869 15.5809 65 15.7431 65H16.9901H18.3023C18.6002 65 18.8965 64.9556 19.1814 64.8683L20.6488 64.4186C20.8291 64.3633 21.0038 64.2912 21.1706 64.2031L21.9792 63.7761C22.4395 63.533 22.8286 63.1744 23.1083 62.7355L23.3289 62.3894C23.3489 62.358 23.3733 62.3296 23.4013 62.3052L23.7206 62.0268C23.9434 61.8326 24.2776 62.066 24.1721 62.342L23.647 63.372C23.6358 63.394 23.621 63.4141 23.6034 63.4314C23.4208 63.6104 23.6249 63.9085 23.8578 63.803L26.2047 62.7407L28.4882 61.4442C28.6817 61.3343 28.8624 61.2033 29.0269 61.0534L30.6765 59.5512L32.1447 58.3813C32.5521 58.0567 32.6747 57.4902 32.4381 57.0261L31.6251 54.7669L30.6765 52.6405L30.2271 51.0978C30.1655 50.8866 30.1274 50.6691 30.1134 50.4495L29.8635 46.5272L30.1345 42.8061L30.314 41.7499C30.4451 40.9784 31.1135 40.4139 31.8961 40.4139L34.1998 40.1481L35.9965 40.0307C36.1535 40.0204 36.3095 39.9978 36.463 39.9631L37.7723 39.6667C37.9199 39.6333 38.0648 39.5888 38.2057 39.5335L39.0615 39.1978C39.2528 39.1228 39.4357 39.0283 39.6077 38.9159L40.5265 38.3152C40.8233 38.1211 41.0833 37.876 41.2946 37.5912L41.9031 36.7706C42.0067 36.6309 42.0895 36.4769 42.149 36.3135C42.4782 35.4096 42.04 34.4065 41.1532 34.0337L39.8912 33.5033L35.6904 32.0414L30.541 30.3137L29.4569 29.7821L28.8803 29.4994C28.545 29.3349 28.2433 29.1093 27.9908 28.8342L27.3078 28.09C27.2049 27.9779 27.0937 27.8737 26.975 27.7785L25.6627 26.7255L25.2883 26.4894C24.4705 25.9739 24.2718 24.8674 24.859 24.0995C24.9428 23.99 25.0124 23.8705 25.0663 23.7436L25.6627 22.3399L26.2508 20.9556C26.3103 20.8155 26.3591 20.671 26.3967 20.5235L26.8273 18.8342C26.8639 18.6908 26.8898 18.5448 26.9048 18.3975L27.1533 15.9608V14.1898C27.1533 13.4525 26.8567 12.7462 26.3303 12.2299L26.1254 12.029C26.0881 11.9924 26.0461 11.9609 26.0005 11.9354L25.5844 11.7021C25.3768 11.5858 25.1206 11.7359 25.1206 11.9739V13.9654C25.1206 14.1435 25.1048 14.3213 25.0732 14.4966L24.7141 16.4924L24.3076 18.22L23.7656 20.2135L23.1061 21.8304C23.0043 22.0798 22.8636 22.3116 22.6891 22.5169L22.4204 22.8331C22.3249 22.9455 22.2031 23.0325 22.0658 23.0864C21.775 23.2005 21.4457 23.1545 21.1974 22.965L20.3778 22.3399L19.5648 21.5425L18.493 20.3746C18.3946 20.2673 18.3041 20.1531 18.2223 20.0327L17.3769 18.7891C17.3015 18.6781 17.2611 18.547 17.2611 18.4127C17.2611 18.2868 17.2966 18.1635 17.3635 18.0568L18.1588 16.7894C18.2826 16.5921 18.3831 16.3809 18.458 16.1603L19.0227 14.4989L19.5648 12.6383L19.8358 10.9107L19.9713 8.65142V6.79085V5.51929C19.9713 5.14255 19.8197 4.78165 19.5508 4.51786L19.4083 4.37817C19.3332 4.30445 19.2406 4.2509 19.1392 4.22249L18.9493 4.16928C18.6459 4.08427 18.3452 4.31232 18.3452 4.6274C18.3452 4.65209 18.3433 4.67674 18.3394 4.70113L18.1104 6.16111C18.0863 6.31491 18.0742 6.47035 18.0742 6.62603V7.85207C18.0742 8.03022 18.0583 8.20802 18.0267 8.38335L17.6676 10.3791L17.2611 11.9739L16.5836 13.7015L15.7592 15.8959C15.7008 16.0515 15.5015 16.0957 15.3828 15.9792C15.3703 15.967 15.3592 15.9533 15.3498 15.9386L14.8806 15.2023C14.7516 14.9999 14.6474 14.7827 14.5701 14.5555L14.1444 13.3028L13.6024 11.7081L13.0603 9.98039L12.5183 7.58824L12.3168 5.80992C12.2718 5.41284 12.0915 5.04334 11.8062 4.76352L11.452 4.41613C11.3537 4.31977 11.2216 4.2658 11.084 4.2658C10.8194 4.2658 10.5961 4.46247 10.5626 4.72492L10.4856 5.32898V7.05664V8.60152C10.4856 8.89893 10.5299 9.19468 10.6169 9.47907L10.8922 10.3791L11.7052 13.3028L13.1068 16.9266C13.166 17.0798 13.2378 17.228 13.3213 17.3695L14.6864 19.6819L16.5836 22.207L19.0227 24.9978L21.0807 26.89C21.1539 26.9572 21.2353 27.0148 21.3232 27.0612L22.1154 27.4795C22.5026 27.684 22.5427 28.223 22.19 28.4825C21.9955 28.6255 21.7339 28.6365 21.5281 28.5104L20.7843 28.0545L18.8871 26.5039C18.5306 26.2125 18.1118 26.0072 17.6632 25.9036L16.4714 25.6286C16.1874 25.5631 15.8935 25.5517 15.6053 25.5952L14.4674 25.7669C13.4972 25.9133 12.9436 26.9549 13.3652 27.8409C13.4325 27.9824 13.5221 28.1121 13.6306 28.2251L15.3191 29.9845C15.5285 30.2027 15.7697 30.388 16.0345 30.5341L17.471 31.3266C17.6916 31.4482 17.9265 31.5417 18.1704 31.6046L18.4776 31.6839C19.6319 31.9818 20.5003 32.9349 20.6898 34.1118L20.7462 34.4624C20.7716 34.6201 20.7843 34.7796 20.7843 34.9393V41.7799C20.7843 42.0202 20.7555 42.2596 20.6984 42.493L20.0745 45.0421C20.0061 45.322 19.8976 45.5904 19.7526 45.8393L18.3452 48.2549L17.0573 50.207C16.9226 50.411 16.7636 50.5978 16.5837 50.7633L14.9958 52.2232C14.7906 52.4119 14.56 52.5711 14.3108 52.6961Z" fill="#c68d53"/>
</svg>
