<svg width="21" height="21" viewBox="0 0 21 21" fill="none" xmlns="http://www.w3.org/2000/svg">
<path d="M8.87832 1H3C1.89543 1 1 1.89543 1 3V15C1 16.1046 1.89543 17 3 17H18C19.1046 17 20 16.1046 20 15V6.97838C20 5.87381 19.1046 4.97838 18 4.97838H14.3617C13.8117 4.97838 13.2859 4.75187 12.9081 4.35214L10.3319 1.62624C9.95407 1.22651 9.42834 1 8.87832 1Z" fill="#F8F0C9" stroke="#c68d53" stroke-linecap="round"/>
<path d="M4.88733 17.2974L3.68857 17.8989C3.52854 17.9792 3.36166 18.045 3.1899 18.0956L2.24059 18.3749C2.20152 18.3864 2.16133 18.3936 2.12071 18.3964L1.98218 18.4061C1.5764 18.4346 1.37642 18.9133 1.64141 19.2219C1.66396 19.2482 1.6892 19.272 1.71671 19.293L2.05519 19.5512L2.51948 19.8824L3.02597 20.1721L3.65909 20.5033L3.81039 20.5775C4.04616 20.6931 4.2961 20.7772 4.55379 20.8278L5.00974 20.9172L5.27586 20.9607C5.43585 20.9869 5.59769 21 5.7598 21H5.98052H6.09614C6.38326 21 6.66877 20.9572 6.94329 20.8731L7.04845 20.8409C7.15228 20.809 7.25288 20.7675 7.34891 20.7168L7.52846 20.622C7.67578 20.5442 7.80033 20.4294 7.88986 20.2889L7.95489 20.1869C7.96112 20.1771 7.96872 20.1682 7.97747 20.1606L8.07691 20.0739C8.14631 20.0134 8.25041 20.0861 8.21753 20.1721L8.05398 20.4929C8.05049 20.4998 8.0459 20.506 8.0404 20.5114C7.98354 20.5672 8.0471 20.66 8.11966 20.6272L8.85065 20.2963L9.36145 20.0063C9.55495 19.8964 9.73562 19.7654 9.90014 19.6155L10.2435 19.3028L10.7008 18.9384C10.8277 18.8373 10.8659 18.6609 10.7922 18.5163L10.539 17.8126L10.2435 17.1503L10.1673 16.8887C10.1057 16.6774 10.0676 16.46 10.0536 16.2404L9.99026 15.2462L10.0747 14.0871L10.1306 13.7582C10.1714 13.5179 10.3796 13.342 10.6234 13.342L11.3409 13.2593L11.7381 13.2333C11.8951 13.223 12.0511 13.2004 12.2046 13.1657L12.3353 13.1361C12.4601 13.1079 12.5825 13.0702 12.7017 13.0235L12.7389 13.0089C12.8758 12.9552 13.0069 12.8875 13.13 12.807L13.1897 12.768C13.3627 12.6549 13.5143 12.512 13.6375 12.3459L13.7403 12.2072C13.7726 12.1637 13.7984 12.1158 13.8169 12.0648C13.9194 11.7833 13.783 11.4709 13.5067 11.3548L13.1136 11.1895L11.8052 10.7342L10.2013 10.1961L9.86364 10.0305C9.64049 9.92108 9.43974 9.77095 9.2717 9.58784L9.2555 9.57019C9.18267 9.49083 9.10392 9.41713 9.01991 9.34972L8.68182 9.07843L8.5652 9.00491C8.31048 8.84431 8.24859 8.4997 8.43151 8.2605C8.45758 8.2264 8.47927 8.18916 8.49606 8.14965L8.68182 7.71242L8.80344 7.42615C8.86297 7.28604 8.91174 7.14161 8.94934 6.9941L9.00676 6.76887C9.04333 6.6254 9.06923 6.47943 9.08425 6.33214L9.1461 5.72549V5.17386C9.1461 4.94421 9.05372 4.72421 8.88976 4.56341L8.82595 4.50083C8.81433 4.48943 8.80125 4.47963 8.78705 4.47167L8.65743 4.39903C8.59276 4.36279 8.51299 4.40953 8.51299 4.48366V4.91961C8.51299 5.09776 8.49712 5.27555 8.46557 5.45089L8.38636 5.89107L8.25974 6.42919L8.09091 7.05011L7.88551 7.55372C7.85381 7.63143 7.80997 7.70361 7.75563 7.76757L7.67194 7.86606C7.64219 7.90107 7.60424 7.92817 7.56147 7.94495C7.4709 7.98048 7.36834 7.96614 7.29099 7.90714L7.03571 7.71242L6.78247 7.46405L6.48036 7.13484C6.42859 7.07843 6.38099 7.01832 6.33794 6.955L6.10101 6.60645C6.0775 6.57187 6.06494 6.53102 6.06494 6.48921C6.06494 6.44999 6.07599 6.41158 6.09683 6.37836L6.30505 6.04652C6.36986 5.94324 6.42242 5.83275 6.46166 5.7173L6.61364 5.27015L6.78247 4.69063L6.86688 4.15251L6.90909 3.4488V2.86928V2.47322C6.90909 2.35588 6.86189 2.24347 6.77811 2.1613L6.73374 2.11779C6.71033 2.09483 6.6815 2.07815 6.64992 2.0693L6.59077 2.05273C6.49627 2.02625 6.4026 2.09728 6.4026 2.19542C6.4026 2.20311 6.402 2.21079 6.40081 2.21838L6.35443 2.51405C6.3303 2.66785 6.31818 2.82329 6.31818 2.97897V3.01547C6.31818 3.19362 6.30231 3.37141 6.27076 3.54675L6.19156 3.98693L6.06494 4.48366L5.8539 5.02179L5.59714 5.70527C5.57892 5.75376 5.51686 5.7675 5.47988 5.73123C5.47599 5.72742 5.47255 5.72317 5.46962 5.71858L5.37124 5.5642C5.29933 5.45137 5.24122 5.33031 5.19817 5.20362L5.09416 4.8976L4.92532 4.40087L4.75649 3.86275L4.58766 3.11765L4.52491 2.56375C4.5109 2.44006 4.45474 2.32497 4.36587 2.23782L4.25554 2.12962C4.22494 2.0996 4.18378 2.08279 4.14092 2.08279C4.05851 2.08279 3.98895 2.14405 3.97853 2.22579L3.95455 2.41394V2.95207V3.14011C3.95455 3.4271 3.99722 3.71249 4.08117 3.98693L4.33442 4.8976L4.70964 5.86776C4.76891 6.02102 4.84068 6.16915 4.92421 6.31066L5.26299 6.88453L5.8539 7.67102L6.61364 8.5403L7.25466 9.12968C7.27743 9.15062 7.30281 9.16853 7.33017 9.18298L7.57694 9.3133C7.69754 9.37698 7.71001 9.54487 7.60015 9.62568C7.53959 9.67022 7.4581 9.67366 7.394 9.63438L7.16234 9.49237L6.71646 9.12797C6.50999 8.95923 6.26745 8.84027 6.00763 8.78032L5.81897 8.73678C5.7305 8.71637 5.63896 8.71284 5.54918 8.72639L5.19476 8.77986C4.89256 8.82546 4.72015 9.14989 4.85147 9.42586C4.87243 9.46992 4.90034 9.51032 4.93412 9.54552L5.26684 9.89222C5.46013 10.0936 5.68277 10.2647 5.9272 10.3995L6.1163 10.5038C6.1943 10.5469 6.27741 10.5799 6.36366 10.6022C6.7719 10.7075 7.07902 11.0446 7.14604 11.4608L7.14854 11.4764C7.15772 11.5334 7.16234 11.5911 7.16234 11.6489V13.5184C7.16234 13.7587 7.13347 13.9981 7.07635 14.2315L7.01234 14.4931C6.94386 14.7729 6.83545 15.0414 6.69042 15.2903L6.4026 15.7843L6.14099 16.1808C6.00638 16.3849 5.84733 16.5717 5.66739 16.7371L5.57239 16.8245C5.36712 17.0132 5.13655 17.1724 4.88733 17.2974Z" fill="#c68d53"/>
</svg>
